<?xml version="1.0" encoding="iso-8859-1"?>
<!-- Generator: Adobe Illustrator 19.2.1, SVG Export Plug-In . SVG Version: 6.00 Build 0)  -->
<svg version="1.1" xmlns="http://www.w3.org/2000/svg" xmlns:xlink="http://www.w3.org/1999/xlink" x="0px" y="0px"
	 viewBox="0 0 119.104 203.548" style="enable-background:new 0 0 119.104 203.548;" xml:space="preserve">
<g id="contraforte">
	<g style="opacity:0.5;">
		<path style="fill:#FFFFFF;" d="M119.104,26.564c-6.71-7.135-12.376-14.965-15.784-24.234c-1.3-3.536-3.619-2.319-5.448-1.064
			c-4.236,2.908-8.598,5.779-12.286,9.314C71.317,24.256,57.202,38.096,43.239,52.083c-3.554,3.561-6.338,7.89-10.074,12.624
			c2.604,0.452,4.244,0.335,5.378,1.037c1.371,0.849,3.523,2.901,3.249,3.551c-2.044,4.837,1.293,5.063,4.395,5.965
			c16.436,4.773,32.843,9.648,49.364,14.518c2.938-10.108,5.688-19.914,8.646-29.657c3.412-11.24,8.06-21.926,14.906-31.558
			 M4.203,122.875c-3.688,17.885-4.478,35.107-4.128,52.994c8.45-4.502,16.272-8.67,24.096-12.838
			c0.53,0.437,1.06,0.874,1.589,1.311c-2.314,13.059-4.629,26.116-6.949,39.206c0.425-0.105,2.206-0.285,3.764-0.97
			c11.194-4.922,22.206-10.287,33.547-14.832c9.641-3.864,19.68-6.726,29.456-10.268c1.759-0.638,4.022-2.182,4.443-3.742
			c0.935-3.466,1.033-7.201,1.149-10.837c0.398-12.46,0.665-24.925,0.962-37.388c0.052-2.182,0.007-4.366,0.007-6.549
			c-4.236,4.118-7.686,8.167-10.536,12.601c-3.137,4.879-7.099,5.833-12.357,4.231c-13.246-4.036-26.54-7.916-40.019-11.918
			c-0.578,2.427-1.176,4.935-1.77,7.425C19.887,128.558,12.514,125.886,4.203,122.875z"/>
		<path style="fill-rule:evenodd;clip-rule:evenodd;" d="M119.104,28.564c-6.847,9.632-11.494,20.317-14.906,31.558
			c-2.958,9.743-5.709,19.549-8.646,29.657c-16.521-4.87-32.928-9.745-49.364-14.518c-3.102-0.901-6.439-1.128-4.395-5.965
			c0.274-0.649-1.878-2.702-3.249-3.551c-1.134-0.702-2.774-0.585-5.378-1.037c3.736-4.734,6.521-9.063,10.074-12.624
			C57.202,38.096,71.317,24.256,85.585,10.58c3.688-3.535,8.05-6.406,12.286-9.314c1.829-1.256,4.148-2.473,5.448,1.064
			c3.408,9.27,9.074,17.1,15.784,24.234C119.104,27.231,119.104,27.897,119.104,28.564z"/>
		<path style="fill-rule:evenodd;clip-rule:evenodd;" d="M4.203,122.875c8.311,3.011,15.684,5.683,23.254,8.426
			c0.594-2.49,1.191-4.998,1.77-7.425c13.479,4.002,26.772,7.882,40.019,11.918c5.259,1.602,9.221,0.648,12.357-4.231
			c2.851-4.434,6.3-8.482,10.536-12.601c0,2.183,0.045,4.367-0.007,6.549c-0.297,12.463-0.563,24.928-0.962,37.388
			c-0.116,3.636-0.214,7.371-1.149,10.837c-0.421,1.561-2.685,3.104-4.443,3.742c-9.776,3.542-19.815,6.403-29.456,10.268
			c-11.341,4.545-22.353,9.91-33.547,14.832c-1.558,0.685-3.339,0.865-3.764,0.97c2.32-13.09,4.635-26.148,6.949-39.206
			c-0.529-0.436-1.059-0.874-1.589-1.311c-7.823,4.168-15.646,8.336-24.096,12.838C-0.275,157.982,0.515,140.76,4.203,122.875z"/>
	</g>
</g>
<g id="Layer_1">
</g>
</svg>
