<?xml version="1.0" encoding="iso-8859-1"?>
<!-- Generator: Adobe Illustrator 19.2.1, SVG Export Plug-In . SVG Version: 6.00 Build 0)  -->
<svg version="1.1" xmlns="http://www.w3.org/2000/svg" xmlns:xlink="http://www.w3.org/1999/xlink" x="0px" y="0px"
	 viewBox="0 0 256.527 268.75" style="enable-background:new 0 0 256.527 268.75;" xml:space="preserve">
<g id="gaspea">
	<g style="opacity:0.5;">
		<path style="fill:#FFFFFF;" d="M243.957,166.153c-5.944-6.498-12.674-12.374-15.786-21.062c-1.029-2.874-2.544-5.738-4.456-8.105
			c-12.394-15.334-27.763-27.485-43.051-39.702c-3.917-3.13-7.97-6.091-11.392-8.696c8.021-11.63,15.585-22.6,23.202-33.646
			c-2.12-0.407-4.344-0.948-6.6-1.239c-3.32-0.427-5.997-0.925-4.117-5.486c0.609-1.476-0.082-3.561-0.393-5.329
			c-1.496-8.528-1.809-16.736,5.344-23.297c0.954-0.875,1.669-2.063,2.321-3.205c3.247-5.689,7.13-10.03,14.622-7.633
			c0.816,0.262,1.82-0.061,2.737-0.114c0.158-0.388,0.317-0.774,0.475-1.162c-2.996-1.785-5.96-3.626-8.993-5.344
			c-8.617-4.881-14.975-0.747-17.686,6.06c-3.082,7.74-5.477,15.753-8.265,23.613c-2.834,7.989-4.763,16.208-11.673,22.388
			c-7.791,6.968-14.561,15.066-21.918,22.532c-8.259,8.382-15.939,17.562-25.181,24.699c-18.748,14.478-37.694,28.615-53.645,46.287
			c-7.613,8.436-13.303,17.838-14.405,29.751c2.196,0.222,4.397,0.444,6.695,0.677c-1.986,3.318-3.842,6.277-5.539,9.323
			c-0.693,1.244-0.744,2.92-1.601,3.986c-3.349,4.167-6.809,8.257-10.421,12.197c-1.868,2.038-3.982,3.938-6.263,5.494
			c-6.922,4.723-13.987,9.236-20.981,13.855c-5.158,3.406-7.829,8.602-6.756,14.337c1.337,7.154,4.917,14.193,12.381,16.347
			c15.763,4.549,31.789,8.214,47.784,11.915c5.753,1.331,11.724,1.724,18.429,2.661c-16.018-17.995-21.935-37.675-19.501-59.395
			c8.514,0,16.753-0.109,24.981,0.152c0.923,0.029,2.295,2.039,2.586,3.327c2.492,11.02,4.108,22.287,7.357,33.067
			c2.412,8.006,3.415,16.873,9.746,23.345h3c5.29-0.978,10.577-1.976,15.87-2.933c13.653-2.47,27.115-5.614,39.163-12.852
			c4.588-2.756,8.777-6.175,12.688-8.962c-8.429-12.711-16.334-24.632-24.148-36.416c8.666-3.431,16.037-6.485,23.538-9.178
			c1.184-0.425,3.417,0.331,4.38,1.312c6.751,6.876,13.479,13.794,19.831,21.035c3.268,3.726,5.341,4.279,10.322-0.115
			c7.288-6.43,14.536-12.907,21.92-19.227c8.502-7.277,17.132-14.406,25.967-21.818
			C252.098,174.867,247.981,170.552,243.957,166.153z"/>
		<path style="fill-rule:evenodd;clip-rule:evenodd;" d="M103.997,268.75c-6.331-6.472-7.334-15.339-9.746-23.345
			c-3.248-10.78-4.865-22.048-7.357-33.067c-0.291-1.288-1.663-3.298-2.586-3.327c-8.228-0.262-16.468-0.152-24.981-0.152
			c-2.434,21.72,3.483,41.399,19.501,59.395c-6.705-0.938-12.676-1.33-18.429-2.661c-15.994-3.701-32.02-7.366-47.784-11.915
			c-7.464-2.153-11.043-9.192-12.381-16.347c-1.073-5.735,1.599-10.931,6.756-14.337c6.994-4.618,14.059-9.132,20.981-13.855
			c2.281-1.557,4.395-3.456,6.263-5.494c3.612-3.94,7.072-8.03,10.421-12.197c0.857-1.066,0.907-2.742,1.601-3.986
			c1.697-3.046,3.553-6.005,5.539-9.323c-2.299-0.232-4.5-0.455-6.695-0.677c1.103-11.913,6.792-21.315,14.405-29.751
			c15.951-17.672,34.897-31.81,53.645-46.287c9.242-7.137,16.922-16.317,25.181-24.699c7.356-7.466,14.127-15.564,21.918-22.532
			c6.91-6.18,8.839-14.398,11.673-22.388c2.788-7.86,5.183-15.873,8.265-23.613c2.711-6.808,9.068-10.941,17.686-6.06
			c3.033,1.718,5.997,3.559,8.993,5.344c-0.158,0.388-0.317,0.774-0.475,1.162c-0.917,0.053-1.921,0.376-2.737,0.114
			c-7.492-2.397-11.375,1.944-14.622,7.633c-0.652,1.142-1.367,2.33-2.321,3.205c-7.152,6.56-6.84,14.769-5.344,23.297
			c0.311,1.769,1.002,3.854,0.393,5.329c-1.88,4.562,0.797,5.059,4.117,5.486c2.256,0.291,4.479,0.832,6.6,1.239
			c-7.617,11.047-15.182,22.017-23.202,33.646c3.422,2.605,7.475,5.566,11.392,8.696c15.288,12.217,30.657,24.368,43.051,39.702
			c1.912,2.367,3.427,5.231,4.456,8.105c3.112,8.688,9.842,14.564,15.786,21.062c4.023,4.399,8.141,8.714,12.569,13.443
			c-8.835,7.412-17.465,14.541-25.967,21.818c-7.384,6.32-14.632,12.798-21.92,19.227c-4.981,4.395-7.054,3.841-10.322,0.115
			c-6.353-7.241-13.08-14.159-19.831-21.035c-0.963-0.98-3.196-1.736-4.38-1.312c-7.501,2.692-14.872,5.747-23.538,9.178
			c7.814,11.784,15.72,23.705,24.148,36.416c-3.91,2.787-8.1,6.206-12.688,8.962c-12.048,7.237-25.51,10.382-39.163,12.852
			c-5.293,0.957-10.58,1.954-15.87,2.933C105.997,268.75,104.997,268.75,103.997,268.75z"/>
	</g>
</g>
<g id="Layer_1">
</g>
</svg>
