<?xml version="1.0" encoding="iso-8859-1"?>
<!-- Generator: Adobe Illustrator 19.2.1, SVG Export Plug-In . SVG Version: 6.00 Build 0)  -->
<svg version="1.1" xmlns="http://www.w3.org/2000/svg" xmlns:xlink="http://www.w3.org/1999/xlink" x="0px" y="0px"
	 viewBox="0 0 201.596 81.346" style="enable-background:new 0 0 201.596 81.346;" xml:space="preserve">
<g id="tira">
	<g style="opacity:0.5;">
		<path style="fill-rule:evenodd;clip-rule:evenodd;" d="M191.746,35.422c-18.253-5.837-36.674-11.151-55.211-16.745
			c-0.508,1.188-1.063,2.198-1.382,3.277c-4.307,14.592-9.011,29.088-12.629,43.85c-1.273,5.199-3.199,6.908-8.207,6.613
			c2.914,1.208,5.829,2.416,8.692,3.604c0.317-0.305,0.646-0.494,0.777-0.775c0.203-0.435,0.325-0.926,0.389-1.405
			c0.798-5.986,0.757-5.865,6.61-4.073c12.206,3.737,24.523,7.127,36.653,11.096c4.513,1.477,7.139-0.636,9.32-3.533
			c6.822-9.061,13.399-18.309,20.005-27.532C203.876,39.866,203.878,39.301,191.746,35.422z"/>
		<path style="fill-rule:evenodd;clip-rule:evenodd;" d="M70.145,6.715C65.52,5.672,60.78,5.132,56.071,4.479
			C47.131,3.24,38.119,2.396,29.263,0.724C19.26-1.163,14.385,0.362,8.376,8.606c-1.063,1.456-1.974,3.069-3.239,4.322
			c-4.051,4.005-5.613,8.728-5.013,14.38c0.588,5.533,0.866,11.1,1.313,17.088c20.559,3.397,41.529,6.862,62.499,10.328
			c0.57-0.227,1.141-0.455,1.711-0.683c-7.023-4.366-3.612-9.56-2.277-14.453c2.625-9.621,5.576-19.154,8.143-28.79
			C71.838,9.583,70.908,6.887,70.145,6.715z"/>
		<path style="fill-rule:evenodd;clip-rule:evenodd;" d="M130.218,16.398c-1.762-0.664-2.938-1.184-4.16-1.554
			c-7.82-2.369-15.54-5.277-23.521-6.836C97.859,7.095,92.42,7.422,87.995,9.036c-2.091,0.762-2.608,5.853-3.824,8.988
			c-0.117,0.302-0.077,0.666-0.198,0.965c-1.794,4.403-3.98,8.9,3.747,10.619c-1.476,1.32-2.33,2.733-3.146,2.712
			c-6.08-0.162-5.897,4.384-6.764,8.366c-0.66,3.035-1.435,6.118-2.711,8.928c-1.96,4.314-0.051,5.829,3.824,6.763
			c12.062,2.905,24.09,5.95,36.942,9.143C120.745,48.82,125.455,32.699,130.218,16.398z"/>
	</g>
</g>
</svg>
