<?xml version="1.0" encoding="iso-8859-1"?>
<!-- Generator: Adobe Illustrator 19.2.1, SVG Export Plug-In . SVG Version: 6.00 Build 0)  -->
<svg version="1.1" xmlns="http://www.w3.org/2000/svg" xmlns:xlink="http://www.w3.org/1999/xlink" x="0px" y="0px"
	 viewBox="0 0 124.735 206.377" style="enable-background:new 0 0 124.735 206.377;" xml:space="preserve">
<g id="contraforte">
	<g style="opacity:0.5;">
		<path style="fill:#FFFFFF;" d="M18.531,0C13.34,9.156,9.134,19.121,2.56,27.145c-3.518,4.293-2.938,6.54-1.076,10.093
			C11.859,57.032,21.996,76.96,32.763,96.54c9.822,17.861,15.406,36.791,16.708,57.063c0.643,10.023,1.306,20.046,1.889,28.974
			c22.247,7.829,43.729,15.385,65.208,22.95c6.134,2.16,9.029,0.209,7.943-5.912c-2.708-15.266-5.047-30.646-8.789-45.668
			c-6.187-24.838-16.361-48.191-29.241-70.896c3.396-1.028,6.631-2.009,9.44-2.859c-3.372-4.846-6.637-9.574-9.94-14.274
			c-3.619-5.15-6.628-10.927-11.033-15.29C61.086,36.89,47.993,22.297,31.727,11.105C27.692,8.328,24.896,3.75,21.531,0"/>
		<path style="fill-rule:evenodd;clip-rule:evenodd;" d="M124.511,199.614c-2.708-15.266-5.047-30.646-8.789-45.668
			c-6.187-24.838-16.361-48.191-29.241-70.896c3.396-1.028,6.631-2.009,9.44-2.859c-3.372-4.846-6.637-9.574-9.94-14.274
			c-3.619-5.15-6.628-10.927-11.033-15.29C61.086,36.89,47.993,22.297,31.727,11.105C27.692,8.328,24.896,3.75,21.531,0
			c-1,0-2,0-3,0C13.34,9.156,9.134,19.121,2.56,27.145c-3.518,4.293-2.938,6.54-1.076,10.093
			C11.859,57.032,21.996,76.96,32.763,96.54c9.822,17.861,15.406,36.791,16.708,57.063c0.643,10.023,1.306,20.046,1.889,28.974
			c22.247,7.829,43.729,15.385,65.208,22.95C122.703,207.687,125.597,205.735,124.511,199.614z"/>
	</g>
</g>
<g id="Layer_1">
</g>
</svg>
