<?xml version="1.0" encoding="iso-8859-1"?>
<!-- Generator: Adobe Illustrator 19.2.1, SVG Export Plug-In . SVG Version: 6.00 Build 0)  -->
<svg version="1.1" xmlns="http://www.w3.org/2000/svg" xmlns:xlink="http://www.w3.org/1999/xlink" x="0px" y="0px"
	 viewBox="0 0 253.165 269.332" style="enable-background:new 0 0 253.165 269.332;" xml:space="preserve">
<g id="gaspea">
	<g style="opacity:0.5;">
		<path style="fill:#FFFFFF;" d="M146.031,269.332c6.153-17.879,12.603-35.665,18.27-53.696c1.591-5.064,3.583-7.244,8.683-6.21
			c2.076,0.421,5.266,0.375,5.99,1.653c6.202,10.933,11.879,22.14,11.012,35.323c-0.467,7.107-0.884,14.216-1.398,22.534
			c6.138-0.958,12.865-1.965,19.578-3.064c13.011-2.132,25.985-4.509,39.036-6.339c3.255-0.457,4.48-2.074,4.767-4.573
			c0.6-5.243,1.76-10.71,0.877-15.77c-1.301-7.455-3.19-14.997-11.184-19.109c-5.521-2.84-11.007-6.211-15.557-10.382
			c-9.691-8.884-18.779-18.426-28.045-27.767c-0.578-0.582-1.07-2.158-0.729-2.6c3.128-4.058,0.809-8.013-0.37-11.719
			c-3.881-12.209-7.574-24.481-18.729-32.728c-12.502-9.241-24.439-19.247-36.977-28.438c-8.236-6.037-15.529-12.547-21.274-21.231
			c-5.14-7.77-12.046-14.373-18.188-21.478c-6.553-7.576-13.695-14.727-19.49-22.843c-4.051-5.673-5.68-13.03-9.461-18.953
			C68.45,15.061,63.425,8.388,57.666,2.636C53.091-1.931,45.277-0.302,40.58,5.506C54.496,2.774,59.13,13.32,65.004,21.574
			c4.092,5.75,7.075,12.278,10.699,18.373c3.562,5.99,1.327,9.506-5.716,10.41c-7.058,0.906-13.972,2.918-20.806,4.413
			c4.378,6.183,8.22,11.957,12.431,17.449c3.776,4.925,7.798,9.688,12.007,14.248c4.338,4.698,4.213,6.395-1.055,10.022
			c-15.387,10.598-31.095,20.788-45.899,32.15c-8.703,6.68-16.197,15.036-23.698,23.135c-3.715,4.011-2.912,5.809,1.656,8.353
			c3.446,1.92,6.924,3.782,11.314,6.175C10.561,172.53,5.564,178.319,0,184.765c2.539,1.94,5.229,3.987,7.908,6.048
			c13.008,10.004,26.084,19.922,38.973,30.077c3.54,2.79,5.926,2.994,9.08-0.648c5.621-6.492,11.736-12.555,17.588-18.735
			c7.189,2.643,14.252,5.237,22.322,8.203c-6.418,10.619-12.58,20.816-19.008,31.45c1.015,0.858,2.016,2.123,3.322,2.747
			c10.969,5.235,21.815,10.791,33.057,15.373c9.686,3.948,19.842,6.745,29.789,10.052"/>
		<path style="fill-rule:evenodd;clip-rule:evenodd;" d="M252.845,239.19c-1.301-7.455-3.19-14.997-11.184-19.109
			c-5.521-2.84-11.007-6.211-15.557-10.382c-9.691-8.884-18.779-18.426-28.045-27.767c-0.578-0.582-1.07-2.158-0.729-2.6
			c3.128-4.058,0.809-8.013-0.37-11.719c-3.881-12.209-7.574-24.481-18.729-32.728c-12.502-9.241-24.439-19.247-36.977-28.438
			c-8.236-6.037-15.529-12.547-21.274-21.231c-5.14-7.77-12.046-14.373-18.188-21.478c-6.553-7.576-13.695-14.727-19.49-22.843
			c-4.051-5.673-5.68-13.03-9.461-18.953C68.45,15.061,63.425,8.388,57.666,2.636C53.091-1.931,45.277-0.302,40.58,5.506
			C54.496,2.774,59.13,13.32,65.004,21.574c4.092,5.75,7.075,12.278,10.699,18.373c3.562,5.99,1.327,9.506-5.716,10.41
			c-7.058,0.906-13.972,2.918-20.806,4.413c4.378,6.183,8.22,11.957,12.431,17.449c3.776,4.925,7.798,9.688,12.007,14.248
			c4.338,4.698,4.213,6.395-1.055,10.022c-15.387,10.598-31.095,20.788-45.899,32.15c-8.703,6.68-16.197,15.036-23.698,23.135
			c-3.715,4.011-2.912,5.809,1.656,8.353c3.446,1.92,6.924,3.782,11.314,6.175C10.561,172.53,5.564,178.319,0,184.765
			c2.539,1.94,5.229,3.987,7.908,6.048c13.008,10.004,26.084,19.922,38.973,30.077c3.54,2.79,5.926,2.994,9.08-0.648
			c5.621-6.492,11.736-12.555,17.588-18.735c7.189,2.643,14.252,5.237,22.322,8.203c-6.418,10.619-12.58,20.816-19.008,31.45
			c1.015,0.858,2.016,2.123,3.322,2.747c10.969,5.235,21.815,10.791,33.057,15.373c9.686,3.948,19.842,6.745,29.789,10.052
			c1,0,2,0,3,0c6.153-17.879,12.603-35.665,18.27-53.696c1.591-5.064,3.583-7.244,8.683-6.21c2.076,0.421,5.266,0.375,5.99,1.653
			c6.202,10.933,11.879,22.14,11.012,35.323c-0.467,7.107-0.884,14.216-1.398,22.534c6.138-0.958,12.865-1.965,19.578-3.064
			c13.011-2.132,25.985-4.509,39.036-6.339c3.255-0.457,4.48-2.074,4.767-4.573C252.568,249.717,253.728,244.25,252.845,239.19z"/>
	</g>
</g>
<g id="Layer_1">
</g>
</svg>
