<?xml version="1.0" encoding="iso-8859-1"?>
<!-- Generator: Adobe Illustrator 19.2.1, SVG Export Plug-In . SVG Version: 6.00 Build 0)  -->
<svg version="1.1" xmlns="http://www.w3.org/2000/svg" xmlns:xlink="http://www.w3.org/1999/xlink" x="0px" y="0px"
	 viewBox="0 0 153.694 85.269" style="enable-background:new 0 0 153.694 85.269;" xml:space="preserve">
<g id="tira">
	<g style="opacity:0.5;">
		<path style="fill-rule:evenodd;clip-rule:evenodd;" d="M152.732,36.788c-4.929-8.769-9.965-17.494-15.393-25.957
			C132.722,3.634,126.611-1.38,117.131,0.34C110.5,1.542,103.703,2.064,97.22,3.794c-14.075,3.753-27.966,8.186-41.986,12.153
			c-16.683,4.722-32.385,12.742-49.88,14.765C3.339,30.944,1.423,32.036,0,32.539c7.92,17.653,15.704,35.007,23.655,52.73
			c3.313-1.045,7.201-2.231,11.062-3.495c29.676-9.713,57.508-24.563,88.129-31.638c8.474-1.958,16.957-3.887,25.475-5.644
			C153.128,43.5,155.009,40.839,152.732,36.788z"/>
	</g>
</g>
<g id="Layer_1">
</g>
</svg>
