<?xml version="1.0" encoding="iso-8859-1"?>
<!-- Generator: Adobe Illustrator 19.2.1, SVG Export Plug-In . SVG Version: 6.00 Build 0)  -->
<svg version="1.1" xmlns="http://www.w3.org/2000/svg" xmlns:xlink="http://www.w3.org/1999/xlink" x="0px" y="0px"
	 viewBox="0 0 87.094 118.104" style="enable-background:new 0 0 87.094 118.104;" xml:space="preserve">
<g id="gaspea">
	<g style="opacity:0.5;">
		<g>
			<path style="fill-rule:evenodd;clip-rule:evenodd;" d="M72.184,95.424c4.541-1.887,9.393-3.902,14.91-6.195
				c-2.346-2.061-3.923-3.602-5.656-4.941c-4.723-3.65-9.373-7.42-14.309-10.762c-6.109-4.137-12.813-6.842-20.806-6.551
				c1.223-1.357,2.121-2.632,3.28-3.591c5.732-4.743,9.08-11.136,12.36-17.582c3.518-6.913,6.908-13.893,10.542-20.744
				c0.977-1.841,2.645-3.314,3.983-4.966c0.417-0.514,0.792-1.06,0.814-2.075c-1.012,0.339-2.025,0.678-3.297,1.104
				c0-1.184,0-2.154,0-3.125c-0.493,0.638-1.126,1.212-1.45,1.926c-0.706,1.554-1.122,3.247-1.893,4.763
				c-1.826,3.588-4.01,7.007-5.652,10.672c-3.822,8.529-7.994,16.857-13.669,24.309c-4.422,5.807-9.779,10.607-16.83,13.043
				c-7.763,2.682-15.523,5.404-23.405,7.691c-4.844,1.406-7.374,4.615-9.043,8.965C1.402,89.088,0.689,90.789,0,92.5
				c0,3.5,0,7,0,10.5c0.769,1.457,1.175,3.58,2.38,4.238c2.704,1.474,5.777,2.309,8.752,3.238c2.984,0.932,6.02,1.709,9.054,2.47
				c5.51,1.382,11.03,2.724,16.558,4.03c1.766,0.418,3.566,0.933,5.358,0.964c7.193,0.125,14.395,0.272,21.582,0.046
				c8.644-0.272,16.41-3.277,23.316-8.486c0-0.166,0-0.334,0-0.5c-2.893-2.312-5.906-4.492-8.64-6.98
				C76.049,99.916,74.062,97.455,72.184,95.424z"/>
			<path style="fill-rule:evenodd;clip-rule:evenodd;" d="M85,0c-0.333,0-0.667,0-1,0c-3.889,1.44-5.353,5.032-7.231,8.231
				c-0.299,0.51-0.209,1.249-0.3,1.881c0.338-0.142,0.796-0.188,0.994-0.439C79.998,6.466,82.494,3.23,85,0z"/>
		</g>
	</g>
</g>
<g id="Layer_1">
</g>
</svg>
