<?xml version="1.0" encoding="iso-8859-1"?>
<!-- Generator: Adobe Illustrator 19.2.1, SVG Export Plug-In . SVG Version: 6.00 Build 0)  -->
<svg version="1.1" xmlns="http://www.w3.org/2000/svg" xmlns:xlink="http://www.w3.org/1999/xlink" x="0px" y="0px"
	 viewBox="0 0 79.274 72.005" style="enable-background:new 0 0 79.274 72.005;" xml:space="preserve">
<g id="meio">
	<g style="opacity:0.5;">
		<path style="fill-rule:evenodd;clip-rule:evenodd;" d="M78.669,47.417c-1.911-5.955-3.982-11.862-6.127-17.738
			c-1.124-3.078-2.549-6.045-3.996-9.437c-1.236,1.412-2.164,2.551-3.177,3.611c-1.534,1.606-2.895,3.545-4.745,4.64
			c-2.938,1.737-6.15,0.993-8.455-1.292c-3.276-3.249-4.441-7.091-2.566-10.517c1.805-3.3,4.169-6.293,6.305-9.447
			c-3.437-0.93-7.08-1.953-10.743-2.899c-9.636-2.488-19.281-5.042-29.373-4.161c-1.985,0.173-4.512,0.497-5.749,1.765
			C5.438,6.663,2.073,12.285,0.029,18.616c-0.104,0.323,0.101,0.746,0.185,1.27c1.109-0.428,2.048-0.79,3.268-1.261
			c-0.079,0.914-0.124,1.443-0.169,1.96c6.847,1.916,13.768,3.598,20.508,5.827c4.532,1.498,8.322,4.597,9.917,9.178
			c1.839,5.281,2.988,10.817,4.204,16.294c0.74,3.334,1.042,6.766,1.573,10.374c2.289-1.889,4.296-3.545,6.793-5.606
			c0.532,5.506,0.989,10.247,1.482,15.353c1.115-0.82,2.06-1.439,2.919-2.159c7.925-6.628,16.47-12.314,25.674-17.01
			C79.525,51.232,79.793,50.917,78.669,47.417z"/>
	</g>
</g>
<g id="Layer_1">
</g>
</svg>
