<?xml version="1.0" encoding="iso-8859-1"?>
<!-- Generator: Adobe Illustrator 19.2.1, SVG Export Plug-In . SVG Version: 6.00 Build 0)  -->
<svg version="1.1" xmlns="http://www.w3.org/2000/svg" xmlns:xlink="http://www.w3.org/1999/xlink" x="0px" y="0px"
	 viewBox="0 0 50.5 64" style="enable-background:new 0 0 50.5 64;" xml:space="preserve">
<g id="tira">
	<g style="opacity:0.5;">
		<path style="fill-rule:evenodd;clip-rule:evenodd;" d="M0,52c2.292-3.096,4.584-6.191,6.956-9.394
			c-0.882-0.318-1.697-0.612-2.915-1.051c2.367-2.998,4.451-5.98,6.882-8.646c5.543-6.076,11.227-12.023,16.919-17.962
			c1.427-1.489,2.88-3.306,4.693-4.004C37.846,8.898,39.502,3.616,43,0c0.667,0,1.333,0,2,0c1.833,4.5,3.667,9,5.5,13.5
			c0,0.5,0,1,0,1.5c-1.995,2.483-4.054,4.918-5.971,7.46c-2.733,3.627-5.356,7.338-8.045,10.999c-0.482,0.658-1.061,1.247-0.959,1
			c-3.289-2.878-6.502-5.849-9.891-8.604c-2.625-2.134-4.565-1.876-6.854,0.57c-1.929,2.061-3.844,4.138-5.693,6.27
			c-3.539,4.079-3.568,6.418,0.216,10.297c2.589,2.654,5.481,5.011,8.468,7.708C18.796,55.466,15.178,60.167,10.5,64c-2,0-4,0-6,0
			c-1.5-1.833-3-3.666-4.5-5.5C0,56.334,0,54.167,0,52z"/>
		<path style="fill-rule:evenodd;clip-rule:evenodd;" d="M18.516,44.525c0.364-1.282,0.677-2.382,0.989-3.481
			c-1.036,0.4-2.072,0.799-3.293,1.27c-3.56-2.635-3.944-4.495-1.177-8.186c1.643-2.192,3.494-4.231,5.303-6.295
			c1.279-1.46,2.73-1.503,4.12-0.161c2.274,2.198,4.589,4.366,6.714,6.702c1.526,1.679,1.969,3.742,0.389,5.662
			c-1.792,2.177-3.548,4.466-5.703,6.241C22.974,48.652,21.725,48.163,18.516,44.525z"/>
	</g>
</g>
<g id="Layer_1">
</g>
</svg>
