<?xml version="1.0" encoding="iso-8859-1"?>
<!-- Generator: Adobe Illustrator 19.2.1, SVG Export Plug-In . SVG Version: 6.00 Build 0)  -->
<svg version="1.1" xmlns="http://www.w3.org/2000/svg" xmlns:xlink="http://www.w3.org/1999/xlink" x="0px" y="0px"
	 viewBox="0 0 194.708 170.286" style="enable-background:new 0 0 194.708 170.286;" xml:space="preserve">
<g id="contraforte">
	<g style="opacity:0.8;">
		<path style="opacity:0.5;fill-rule:evenodd;clip-rule:evenodd;" d="M157.969,0c6.255,12.972,13.181,25.67,18.606,38.98
			c7.776,19.073,13.94,38.805,16.663,59.283c1.607,12.093,2.807,24.415-1.498,36.488c-2.487,6.976-6.347,10.739-14.048,12.719
			c-24.256,6.239-48.2,13.691-72.284,20.608c-3.296,0.946-6.697,1.521-9.782,2.208c-1.312-9.471-2.562-18.502-3.945-28.494
			c-7.969,3.159-14.689,5.822-20.698,8.204c-2.842-9.395-5.899-18.907-8.579-28.525c-2.346-8.427-8.619-12.955-15.521-17.257
			C32.498,95.246,16.956,89.629,0,87.374c9.394-1.735,12.817-9.769,17.673-16.038c2.021-2.61,3.318-3.674,6.827-2.385
			c6.178,2.269,12.38-0.1,15.43-4.955c2.956-4.705,1.986-11.845-2.148-16.575c-0.823-0.941-2.135-2.478-1.85-3.194
			c1.54-3.876,3.343-7.582,1.938-11.966c-0.079-0.247,1.882-1.599,2.962-1.699c12.038-1.113,24.118-1.823,36.122-3.21
			c5.033-0.582,9.873-2.684,14.867-3.803c20.531-4.604,39.782-12.809,59.073-20.896c1.188-0.498,2.058-1.751,3.076-2.654
			C155.303,0,156.636,0,157.969,0z"/>
	</g>
</g>
<g id="Layer_1">
</g>
</svg>
