<?xml version="1.0" encoding="iso-8859-1"?>
<!-- Generator: Adobe Illustrator 19.2.1, SVG Export Plug-In . SVG Version: 6.00 Build 0)  -->
<svg version="1.1" xmlns="http://www.w3.org/2000/svg" xmlns:xlink="http://www.w3.org/1999/xlink" x="0px" y="0px"
	 viewBox="0 0 270.918 289.17" style="enable-background:new 0 0 270.918 289.17;" xml:space="preserve">
<g id="gaspea" style="opacity:0.502;">
	<g style="opacity:0.8;">
		<path style="fill-rule:evenodd;clip-rule:evenodd;" d="M0,203.524c3.07-4.887,4.363-11.469,10.553-13.549
			c9.341-3.136,18.761-6.587,28.428-8.054c10.242-1.554,20.941-0.031,31.211-1.479c18.428-2.596,36.2-7.278,53.516-15.037
			c14.959-6.703,20.104-20.493,29.151-31.524c3.662-4.464,5.841-10.256,9.851-14.298c5.411-5.455,11.811-9.976,18.026-14.573
			c4.923-3.642,10.268-6.706,15.318-10.183c12.706-8.75,19.637-21.256,22.9-36.002c0.369-1.667-0.224-3.595-0.571-5.362
			c-2.057-10.442-2.578-20.697,2.542-30.583c3.19-6.161,5.714-12.691,9.227-18.649c1.263-2.14,4.593-4.315,6.895-4.228
			c2.209,0.083,4.308,3.076,6.455,4.79c-0.238,0.529-0.475,1.059-0.712,1.587c-2.707,0.353-5.424,1.063-8.118,0.976
			c-3.943-0.126-6.045,1.587-7.53,5.107c-3.672,8.709-7.594,17.329-7.228,27.073c0.162,4.306,0.562,8.611,1.047,12.895
			c0.357,3.147,2.227,4.344,5.499,4.309c13.465-0.144,26.932-0.06,40.399-0.06c0.032-0.417,0.065-0.834,0.098-1.25
			c1.149,1.699,2.296,3.398,3.962,5.862c-8.973,0.339-17.627,0.58-26.266,1.074c-1.523,0.088-3.589,0.818-4.384,1.962
			c-8.378,12.052-19.596,21.15-30.645,30.525c-8.33,7.067-16.675,14.336-23.724,22.613c-3.933,4.619-6.063,11.286-7.482,17.384
			c-1.329,5.71,2.517,10.221,7.512,12.83c22.934,11.978,42.212,28.704,60.883,46.268c3.982,3.745,8.177,7.267,13.182,11.695
			c-10.542,5.574-20.656,10.923-30.531,16.145c9.193,8.67,18.46,17.408,27.713,26.135c-0.604,0.975-0.759,1.518-1.118,1.761
			c-25.579,17.423-51.91,33.123-83.569,36.753c-7.386,0.848-14.796,3.052-22.101,2.694c-11.168-0.546-22.315-2.428-33.357-4.385
			c-11.521-2.041-22.907-4.841-35.546-7.567c2.294-0.455,3.424-0.68,3.744-0.743c-5.38-29.789,0.024-56.854,18.899-81.457
			c-9.145,2.847-24.66,20.944-29.66,33.832c-5.645,14.552-8.6,29.245-1.926,45.558c-5.334-1.64-9.783-2.923-14.166-4.4
			c-1.706-0.575-3.204-1.744-4.895-2.382c-7.843-2.954-15.812-5.594-23.566-8.763c-14.937-6.106-24.481-16.923-27.78-32.94
			c-0.646-3.135-1.42-6.242-2.135-9.361C0,212.19,0,207.857,0,203.524z"/>
	</g>
</g>
<g id="Layer_1">
</g>
</svg>
