<?xml version="1.0" encoding="iso-8859-1"?>
<!-- Generator: Adobe Illustrator 19.2.1, SVG Export Plug-In . SVG Version: 6.00 Build 0)  -->
<svg version="1.1" xmlns="http://www.w3.org/2000/svg" xmlns:xlink="http://www.w3.org/1999/xlink" x="0px" y="0px"
	 viewBox="0 0 247.644 173.264" style="enable-background:new 0 0 247.644 173.264;" xml:space="preserve">
<g id="contraforte">
	<path style="opacity:0.4;" d="M247.594,70.442c-27.156-5.194-52.665,2.568-77.83,10.488c0-3.682,0.5-6.848-0.085-9.798
		c-2.713-13.67-5.803-27.265-8.601-40.919c-1.325-6.466-2.147-6.813-8.569-5.777c-9.103,1.469-18.284,2.776-27.478,3.24
		c-5.852,0.295-11.83-0.796-17.675-1.741c-10.538-1.705-21.477-2.468-31.418-5.977C59.938,14.312,44.611,6.752,29,0
		c-1.333,0-2.667,0-4,0c-1.172,1.472-2.851,2.768-3.433,4.444c-3.274,9.425-6.803,18.81-9.245,28.461
		C9.636,43.521,7.743,54.363,6.034,65.191c-0.502,3.177-0.966,6.359-1.413,9.545c-0.084,0.598-0.161,1.198-0.243,1.796
		C3.252,84.7,2.244,92.886,1.165,101.06v0L0,106c0,2.333,0,4.667,0,7c0.655,4.836,1.477,9.656,1.931,14.511
		c1.154,12.361,6.042,21.847,19.037,25.126c7.645,1.93,15.333,3.693,23.035,5.381c18.44,4.041,36.907,7.959,55.346,12.005
		c4.567,1.002,9.068,2.305,12.709,3.241c-1.979-10.167-3.885-19.959-6.068-31.175c9.752,3.2,17.633,5.786,25.943,8.514
		c2.12-9.327,3.255-18.789,6.487-27.471c4.537-12.188,13.578-20.924,26.484-23.981c21.922-5.193,43.857-10.452,66.46-12.161
		C239.65,86.363,248.385,80.682,247.594,70.442z"/>
</g>
</svg>
