<?xml version="1.0" encoding="iso-8859-1"?>
<!-- Generator: Adobe Illustrator 19.2.1, SVG Export Plug-In . SVG Version: 6.00 Build 0)  -->
<svg version="1.1" xmlns="http://www.w3.org/2000/svg" xmlns:xlink="http://www.w3.org/1999/xlink" x="0px" y="0px"
	 viewBox="0 0 282.52 293.701" style="enable-background:new 0 0 282.52 293.701;" xml:space="preserve">
<g id="gaspea">
	<path style="opacity:0.4;fill-rule:evenodd;clip-rule:evenodd;" d="M281.594,212.085c-1.609-8.541-5.301-15.295-14.588-17.408
		c-7.216-1.643-14.339-4.076-21.644-4.876c-21.88-2.396-43.877-3.761-65.734-6.326c-12.833-1.507-25.599-4.982-35.445-13.802
		c-6.933-6.211-13.134-13.657-18.121-21.528c-9.218-14.545-21.036-26.278-34.607-36.563c-12.008-9.101-23.944-18.299-35.75-27.658
		c-9.043-7.171-14.107-15.938-13.334-28.312c1.188-19.002-4.643-36.282-16.4-51.344c-1.554-1.99-4.505-4.56-6.352-4.239
		c-2.488,0.434-4.535,3.412-6.332,4.93c5.269,3.069,10.185,5.106,13.945,8.445c2.128,1.889,1.786,6.3,3.541,8.914
		c7.062,10.52,7.462,22.401,7.523,34.346c0.008,1.317-1.828,3.56-3.111,3.807c-4.764,0.915-9.654,1.176-15,1.734
		c1.766,3.402,2.895,6.795,4.99,9.417c12.548,15.715,25.023,31.594,43.597,40.867c11.08,5.532,17.53,14.821,21.658,26.044
		c4.374,11.893,1.675,18.88-9.83,24.141c-19.196,8.777-37.134,19.611-53.737,32.585c-7.273,5.684-13.996,12.071-21.752,18.82
		c9.276,3.451,17.316,6.442,25.598,9.523C20.236,231.231,10.272,238.489,0,245.974c5.301,3.778,10.031,7.107,14.717,10.497
		c17.104,12.372,35.443,22.412,55.496,29.127c8.697,2.913,17.533,5.415,26.307,8.103c15.334,0,30.666,0,46,0
		c5.385-0.641,10.779-1.206,16.15-1.941c6.861-0.939,13.92-1.335,20.434-3.409c2.212-0.705,3.674-5.662,4.338-8.909
		c1.156-5.655,1.209-11.528,2.193-17.228c0.311-1.799,2.117-3.339,3.238-4.997c0.855,0.286,1.712,0.573,2.567,0.86
		c0,7.254,0.071,14.509-0.024,21.761c-0.068,5.187,0.886,6.198,5.947,4.714c14.545-4.264,29.1-8.512,43.511-13.196
		c6.846-2.226,13.463-5.232,20.024-8.233c11.464-5.243,19.122-13.761,21.621-26.42c0-7.333,0-14.667,0-22
		C282.204,213.83,281.763,212.983,281.594,212.085z"/>
</g>
</svg>
