<?xml version="1.0" encoding="iso-8859-1"?>
<!-- Generator: Adobe Illustrator 19.2.1, SVG Export Plug-In . SVG Version: 6.00 Build 0)  -->
<svg version="1.1" xmlns="http://www.w3.org/2000/svg" xmlns:xlink="http://www.w3.org/1999/xlink" x="0px" y="0px"
	 viewBox="0 0 361.37 154.329" style="enable-background:new 0 0 361.37 154.329;" xml:space="preserve">
<g id="palmilha">
	<path style="opacity:0.4;fill-rule:evenodd;clip-rule:evenodd;" d="M1.048,0c3.519,0.983,6.94,1.591,10.084,2.874
		C36.223,13.112,61.621,22.7,86.191,34.073c17.239,7.98,33.66,17.912,49.841,27.946c18.379,11.398,37.193,21.632,57.804,28.359
		c1.966,0.643,3.854,1.526,5.937,2.361c-9.116,6.748-17.865,13.286-26.689,19.724c-3.124,2.279-5.683,0.129-8.136-1.533
		c-13.057-8.846-26.115-17.689-39.11-26.626C95.026,63.116,61.757,47.097,25.903,36.417c-5.378-1.602-10.742-3.456-15.791-5.866
		c-2.457-1.173-5.338-3.574-6.007-5.98C2.173,17.617,1.221,10.387,0.019,3.243C-0.123,2.404,0.571,1.425,1.048,0z"/>
	<path style="opacity:0.4;fill-rule:evenodd;clip-rule:evenodd;" d="M361.22,127.636c0,7.188,0.42,14.409-0.145,21.552
		c-0.394,4.976-1.553,5.327-7.423,5.086c0.743-7.867,1.327-15.739,2.375-23.549c0.189-1.406,2.289-2.557,3.506-3.825
		C360.096,127.144,360.658,127.391,361.22,127.636z"/>
</g>
</svg>
