<?xml version="1.0" encoding="iso-8859-1"?>
<!-- Generator: Adobe Illustrator 19.2.1, SVG Export Plug-In . SVG Version: 6.00 Build 0)  -->
<svg version="1.1" xmlns="http://www.w3.org/2000/svg" xmlns:xlink="http://www.w3.org/1999/xlink" x="0px" y="0px"
	 viewBox="0 0 105.247 123.429" style="enable-background:new 0 0 105.247 123.429;" xml:space="preserve">
<g id="gaspea">
	<path style="opacity:0.4;fill-rule:evenodd;clip-rule:evenodd;" d="M96.736,94.958c-2.115-4.787-5.074-8.576-10.243-10.303
		c-5.593-1.869-11.124-3.928-16.736-5.734c-3.35-1.078-6.719-1.932-10.401-1.198c-1.373,0.272-3.654,0.005-4.057-2.295
		c-0.426-2.43-0.816-4.877-1.006-7.334c-0.704-9.166-1.467-18.331-1.925-27.511c-0.403-8.085-0.415-16.19-0.626-24.286
		c-0.126-4.862-0.242-9.726-0.533-14.58C51.171,1.085,50.104-0.009,49.528,0c-4.549,0.073-9.094,0.36-13.64,0.601
		c-0.114,0.006-0.215,0.238-0.192,0.21c-0.172,2.192-0.511,4.221-0.458,6.241c0.235,8.968,0.664,17.931,0.871,26.9
		c0.284,12.302,0.455,24.608,0.609,36.913c0.019,1.548-0.219,3.135-0.587,4.643c-0.336,1.373-1.021,2.071-2.873,1.707
		c-4.652-0.914-9.271-2.272-14.164-1.339c-3.645,0.695-7.476,1.351-9.197,4.873c-2.136,4.368-3.837,9.026-5.101,13.728
		c-1.661,6.176-2.861,12.49-3.97,18.797c-0.619,3.518-2.219,7.445,1.921,10.156c0.667,0,1.333,0,2,0
		c0.206-0.624,0.747-1.372,0.567-1.852c-2.021-5.424-1.797-6.903,2.683-10.648c3.712-3.102,7.439-6.281,11.552-8.781
		c5.039-3.064,10.503-5.243,16.571-5.768c6.64-0.572,13.221-1.868,19.864-2.354c8.425-0.617,16.569,0.894,24.223,4.638
		c1.62,0.792,3.176,1.752,4.858,2.373c5.623,2.08,8.054,6.742,9.434,12c0.392,1.498-0.722,3.393-1.324,5.831
		c3.301-0.291,6.439-0.426,9.519-0.926c0.936-0.152,1.707-1.313,2.554-2.013c0-0.834,0-1.666,0-2.5
		C102.402,107.275,99.476,101.157,96.736,94.958z"/>
</g>
<g id="Layer_1">
</g>
</svg>
