<?xml version="1.0" encoding="iso-8859-1"?>
<!-- Generator: Adobe Illustrator 19.2.1, SVG Export Plug-In . SVG Version: 6.00 Build 0)  -->
<svg version="1.1" xmlns="http://www.w3.org/2000/svg" xmlns:xlink="http://www.w3.org/1999/xlink" x="0px" y="0px"
	 viewBox="0 0 79.958 67.444" style="enable-background:new 0 0 79.958 67.444;" xml:space="preserve">
<g id="meio">
	<path style="opacity:0.4;fill-rule:evenodd;clip-rule:evenodd;" d="M79.627,17.137c-0.683-3.741-1.218-7.519-2.14-11.2
		C77.19,4.75,76.077,3.326,74.98,2.87c-2.57-1.068-5.325-2.102-8.062-2.281C59.96,0.136,52.97,0.131,45.992,0.004
		c-3.298-0.06-3.724,0.452-3.584,3.709c0.167,3.901,0.308,7.804,0.477,11.706c0.024,0.55,0.152,1.095,0.233,1.639
		c0.822,0,1.488,0.045,2.146-0.007c7.043-0.559,14.075-1.093,21.13,0.013c4.327,0.678,4.657,0.536,5.118,5.25
		c0.778,7.974,0.355,15.861-3.774,23.089c-0.185,0.323-0.306,0.789-0.229,1.14c1.344,6.185,2.724,12.362,4.26,19.284
		c0.817-1.291,1.33-1.968,1.705-2.714c4.403-8.784,5.966-18.186,6.08-27.913c0.026-2.212,0.264-4.421,0.404-6.631v-9.5
		C79.847,18.425,79.744,17.78,79.627,17.137z"/>
	<path style="opacity:0.4;fill-rule:evenodd;clip-rule:evenodd;" d="M0.397,21.622c0.526,2.923,1.303,5.802,2.006,8.691
		c2.105,8.636,4.738,17.053,10.123,24.329c3.042,4.109,6.054,8.241,9.403,12.802c0.551-7.196-1.086-13.375-2.816-19.504
		c-0.404-1.43-1.478-3.062-2.719-3.795c-5.352-3.158-8.715-7.797-10.741-13.494c-1.327-3.73-0.915-4.849,2.47-7.062
		c5.453-3.566,11.523-5.268,18.342-5.59c0-5.727,0-11.265,0-17.388C20.754,2.114,15.057,3.201,9.664,5.133
		C2.376,7.743-1.264,12.396,0.397,21.622z"/>
</g>
<g id="Layer_1">
</g>
</svg>
