<?xml version="1.0" encoding="iso-8859-1"?>
<!-- Generator: Adobe Illustrator 19.2.1, SVG Export Plug-In . SVG Version: 6.00 Build 0)  -->
<svg version="1.1" xmlns="http://www.w3.org/2000/svg" xmlns:xlink="http://www.w3.org/1999/xlink" x="0px" y="0px"
	 viewBox="0 0 70.989 35.815" style="enable-background:new 0 0 70.989 35.815;" xml:space="preserve">
<g id="tira">
	<path style="opacity:0.4;fill:#020202;" d="M68.273,21.791c-0.02-0.018-0.039-0.037-0.058-0.055
		c-0.923-0.888-1.846-1.775-2.771-2.66c-0.19-0.182-0.382-0.362-0.572-0.543c-0.67-0.635-1.347-1.262-2.027-1.883
		c-0.258-0.235-0.514-0.471-0.773-0.704c-0.885-0.792-1.78-1.57-2.7-2.318C53.559,8.903,47.464,4.525,41.489,0
		c-0.167,0-0.333,0-0.5,0c0.158,2.444,0.317,4.887,0.506,7.802c-10.144-2.999-19.404-1.509-27.568,4.391
		C5.781,18.08,1.437,26.461,0,35.815c2.091-1.953,4.38-4.082,6.654-6.226c0.296-0.279,0.565-0.611,0.762-0.966
		c3.405-6.151,9.049-9.646,15.453-11.274c8.206-2.086,16.291-0.995,23.594,3.866c1.276,0.85,2.82,1.677,4.294,1.786
		c6.615,0.489,13.25,0.715,19.877,1.036c0.119-0.012,0.237-0.024,0.356-0.036L68.273,21.791z"/>
</g>
<g id="Layer_1">
</g>
</svg>
