<?xml version="1.0" encoding="utf-8"?>
<!-- Generator: Adobe Illustrator 16.0.0, SVG Export Plug-In . SVG Version: 6.00 Build 0)  -->
<!DOCTYPE svg PUBLIC "-//W3C//DTD SVG 1.1//EN" "http://www.w3.org/Graphics/SVG/1.1/DTD/svg11.dtd">
<svg version="1.1" xmlns="http://www.w3.org/2000/svg" xmlns:xlink="http://www.w3.org/1999/xlink" x="0px" y="0px"
	 width="307.333px" height="150px" viewBox="0 0 307.333 150" enable-background="new 0 0 307.333 150" xml:space="preserve">
<g id="Layer_1">
</g>
<g id="Layer_2">
</g>
<g id="Layer_3" display="none">
	<g display="inline">
		<defs>
			<rect id="SVGID_1_" x="-7" y="-84.333" width="320" height="320"/>
		</defs>
		<clipPath id="SVGID_2_">
			<use xlink:href="#SVGID_1_"  overflow="visible"/>
		</clipPath>
		<g id="FDiCBN_1_" clip-path="url(#SVGID_2_)">
			
				<image overflow="visible" width="3840" height="2160" id="FDiCBN_2_" xlink:href="A7941171EDBDA6FF.png"  transform="matrix(0.2899 0 0 0.2899 -403.6455 -177.4468)">
			</image>
		</g>
	</g>
	<rect x="-7" y="-84.333" display="inline" opacity="0.65" width="320" height="320"/>
	<g display="inline">
		<defs>
			<rect id="SVGID_3_" x="333" y="-84.333" width="320" height="320"/>
		</defs>
		<clipPath id="SVGID_4_">
			<use xlink:href="#SVGID_3_"  overflow="visible"/>
		</clipPath>
		<g id="FDiCBN_3_" clip-path="url(#SVGID_4_)">
			
				<image overflow="visible" width="3840" height="2160" id="FDiCBN_4_" xlink:href="A7941171EDBDA6FD.png"  transform="matrix(0.2899 0 0 0.2899 -63.6455 -177.4468)">
			</image>
		</g>
	</g>
</g>
<g id="Layer_4">
	<g>
		<g>
			<path fill="#B69551" d="M42.057,61.451c-0.646,0-1.283,0.028-1.917,0.069c-0.634-0.041-1.272-0.069-1.917-0.069
				c-10.771,0-20.212,5.791-25.382,14.422V31.558h-0.355H9.006H8.651V91.02h0.002v0.001c0,9.736,4.732,18.388,12.016,23.778
				c4.962,3.766,11.142,6.005,17.837,6.005c1.184,0,2.349-0.078,3.497-0.214c0.018,0,0.035,0.001,0.054,0.001
				c16.304,0,29.568-13.265,29.568-29.57S58.36,61.451,42.057,61.451z M40.14,120.166c-15.219-0.991-27.298-13.68-27.298-29.145
				c0-14.934,11.267-27.277,25.745-29c6.388,0.019,12.298,2.101,17.105,5.608c7.124,5.331,11.747,13.828,11.747,23.392
				C67.438,106.486,55.358,119.174,40.14,120.166z"/>
			<rect x="83.305" y="59.144" fill="#B69551" width="4.615" height="58.785"/>
			<path fill="#B69551" d="M164.523,31.558h-3.141h-0.715V91.12v0.345c0,15.456-12.069,28.145-27.277,29.141
				c-15.208-0.996-27.275-13.685-27.275-29.141l0,0V31.629h-0.713h-3.142h-0.713v59.478h-0.001v0.357
				c0,0.015,0.001,0.032,0.001,0.048v0.731h0.01c0.415,16.138,13.67,29.138,29.907,29.138c0.647,0,1.29-0.021,1.927-0.061
				c0.637,0.04,1.281,0.061,1.928,0.061c16.496,0,29.918-13.42,29.918-29.916V31.558H164.523z"/>
			<circle fill="#B69551" cx="132.807" cy="102.919" r="2.81"/>
		</g>
		<g opacity="0.3">
			<path fill="#FFFFFF" d="M226.867,48.237l-0.228-0.215c-0.368,0.392-0.752,0.776-1.14,1.142l0.211,0.227
				C226.105,49.021,226.496,48.632,226.867,48.237z"/>
			<path fill="#FFFFFF" d="M214.315,55.321l0.076,0.304c0.526-0.135,1.053-0.288,1.568-0.456l-0.096-0.297
				C215.354,55.037,214.832,55.188,214.315,55.321z"/>
			<path fill="#FFFFFF" d="M212.739,55.672c-0.527,0.1-1.063,0.185-1.593,0.251l0.025,0.202h-0.714v0.312h1.621v-0.312h-0.133
				c0.286-0.044,0.57-0.093,0.853-0.146L212.739,55.672z"/>
			<path fill="#FFFFFF" d="M185.963,44.382c0.291,0.455,0.6,0.91,0.92,1.35l0.252-0.185c-0.317-0.434-0.62-0.882-0.907-1.333
				L185.963,44.382z"/>
			<path fill="#FFFFFF" d="M191.545,50.238c-0.414-0.344-0.821-0.702-1.209-1.067l-0.215,0.227c0.395,0.37,0.808,0.733,1.226,1.081
				L191.545,50.238z"/>
			<path fill="#FFFFFF" d="M189.192,48.03c-0.367-0.391-0.725-0.797-1.067-1.209l-0.239,0.199c0.345,0.416,0.708,0.828,1.081,1.224
				L189.192,48.03z"/>
			<path fill="#FFFFFF" d="M224.289,50.232c-0.411,0.34-0.84,0.672-1.273,0.988l0.184,0.252c0.438-0.319,0.871-0.656,1.29-1.002
				L224.289,50.232z"/>
			<path fill="#FFFFFF" d="M220.405,7.624c-0.474-0.262-0.965-0.51-1.456-0.741l-0.133,0.282c0.485,0.229,0.97,0.475,1.439,0.732
				L220.405,7.624z"/>
			<path fill="#FFFFFF" d="M198.419,6.554l-0.114-0.29c-0.5,0.199-1.006,0.418-1.498,0.65l0.136,0.283
				C197.428,6.967,197.925,6.75,198.419,6.554z"/>
			<path fill="#FFFFFF" d="M220.296,52.95l0.15,0.273c0.473-0.261,0.946-0.54,1.404-0.831l-0.17-0.265
				C221.229,52.417,220.763,52.693,220.296,52.95z"/>
			<path fill="#FFFFFF" d="M195.507,7.931l-0.151-0.273c-0.473,0.262-0.944,0.542-1.402,0.834l0.168,0.264
				C194.573,8.467,195.04,8.189,195.507,7.931z"/>
			<path fill="#FFFFFF" d="M217.381,54.324l0.116,0.29c0.502-0.198,1.006-0.416,1.495-0.648l-0.132-0.282
				C218.375,53.912,217.878,54.127,217.381,54.324z"/>
			<path fill="#FFFFFF" d="M184.649,19.519l-0.284-0.134c-0.231,0.495-0.449,1-0.647,1.501l0.292,0.116
				C184.204,20.506,184.42,20.007,184.649,19.519z"/>
			<path fill="#FFFFFF" d="M190.308,11.724l-0.214-0.228c-0.397,0.373-0.785,0.762-1.155,1.156l0.229,0.213
				C189.531,12.478,189.915,12.093,190.308,11.724z"/>
			<path fill="#FFFFFF" d="M186.204,16.69l-0.263-0.168c-0.291,0.457-0.571,0.931-0.832,1.407l0.272,0.15
				C185.64,17.608,185.917,17.141,186.204,16.69z"/>
			<path fill="#FFFFFF" d="M188.102,14.077l-0.241-0.198c-0.347,0.42-0.683,0.855-1,1.291l0.252,0.184
				C187.425,14.921,187.759,14.493,188.102,14.077z"/>
			<path fill="#FFFFFF" d="M183.462,22.523l-0.297-0.096c-0.166,0.516-0.317,1.043-0.451,1.568l0.301,0.077
				C183.147,23.554,183.298,23.033,183.462,22.523z"/>
			<path fill="#FFFFFF" d="M192.788,9.666l-0.184-0.254c-0.437,0.319-0.87,0.657-1.288,1.004l0.199,0.239
				C191.928,10.314,192.356,9.979,192.788,9.666z"/>
			<path fill="#FFFFFF" d="M201.485,5.554l-0.079-0.303c-0.524,0.135-1.052,0.289-1.567,0.457l0.097,0.298
				C200.446,5.839,200.968,5.688,201.485,5.554z"/>
			<path fill="#FFFFFF" d="M182.666,25.649l-0.306-0.058c-0.102,0.532-0.185,1.075-0.252,1.613l0.31,0.038
				C182.483,26.711,182.568,26.174,182.666,25.649z"/>
			<path fill="#FFFFFF" d="M203.113,55.677c-0.526-0.1-1.056-0.216-1.574-0.35l-0.079,0.304c0.528,0.134,1.063,0.253,1.596,0.353
				L203.113,55.677z"/>
			<path fill="#FFFFFF" d="M199.988,54.879c-0.508-0.164-1.02-0.349-1.521-0.547l-0.115,0.291c0.507,0.2,1.023,0.386,1.541,0.553
				L199.988,54.879z"/>
			<path fill="#FFFFFF" d="M182.27,28.849l-0.312-0.019c-0.032,0.529-0.05,1.069-0.05,1.604v0.028l0.314-0.028
				C182.223,29.907,182.238,29.373,182.27,28.849z"/>
			<path fill="#FFFFFF" d="M196.984,53.692c-0.485-0.229-0.968-0.476-1.438-0.734l-0.151,0.273c0.478,0.263,0.968,0.512,1.457,0.743
				L196.984,53.692z"/>
			<path fill="#FFFFFF" d="M194.156,52.135c-0.451-0.286-0.901-0.591-1.337-0.908l-0.182,0.252c0.44,0.321,0.895,0.63,1.352,0.92
				L194.156,52.135z"/>
			<path fill="#FFFFFF" d="M184.388,41.527c0.231,0.488,0.48,0.978,0.743,1.451l0.273-0.149c-0.261-0.471-0.506-0.953-0.733-1.435
				L184.388,41.527z"/>
			<path fill="#FFFFFF" d="M231.427,19.317c-0.23-0.487-0.481-0.976-0.744-1.452l-0.272,0.151c0.259,0.47,0.507,0.953,0.734,1.434
				L231.427,19.317z"/>
			<path fill="#FFFFFF" d="M204.652,4.949l-0.039-0.31c-0.535,0.066-1.078,0.153-1.612,0.255l0.058,0.308
				C203.586,5.101,204.123,5.015,204.652,4.949z"/>
			<path fill="#FFFFFF" d="M223.166,9.372c-0.44-0.318-0.896-0.627-1.353-0.917l-0.167,0.263c0.452,0.286,0.902,0.592,1.336,0.907
				L223.166,9.372z"/>
			<path fill="#FFFFFF" d="M227.924,13.828c-0.347-0.417-0.711-0.829-1.082-1.223l-0.228,0.214c0.367,0.39,0.728,0.796,1.068,1.208
				L227.924,13.828z"/>
			<path fill="#FFFFFF" d="M225.685,11.452c-0.396-0.37-0.809-0.733-1.228-1.079l-0.197,0.241c0.413,0.341,0.821,0.7,1.211,1.065
				L225.685,11.452z"/>
			<path fill="#FFFFFF" d="M182.37,35.333c0.102,0.532,0.222,1.069,0.356,1.593l0.303-0.076c-0.134-0.52-0.25-1.049-0.354-1.575
				L182.37,35.333z"/>
			<path fill="#FFFFFF" d="M183.183,38.495c0.167,0.514,0.354,1.031,0.556,1.536l0.289-0.115c-0.197-0.499-0.383-1.01-0.547-1.517
				L183.183,38.495z"/>
			<path fill="#FFFFFF" d="M231.164,41.375l0.283,0.133c0.229-0.489,0.45-0.994,0.648-1.501l-0.288-0.114
				C231.608,40.393,231.392,40.892,231.164,41.375z"/>
			<path fill="#FFFFFF" d="M229.848,16.462c-0.29-0.455-0.599-0.908-0.921-1.348l-0.252,0.185c0.316,0.434,0.623,0.882,0.91,1.331
				L229.848,16.462z"/>
			<path fill="#FFFFFF" d="M232.354,38.372l0.296,0.097c0.169-0.518,0.321-1.045,0.456-1.568l-0.302-0.078
				C232.672,37.339,232.521,37.861,232.354,38.372z"/>
			<path fill="#FFFFFF" d="M233.449,25.508c-0.101-0.532-0.221-1.068-0.357-1.593l-0.302,0.078c0.133,0.518,0.252,1.049,0.354,1.573
				L233.449,25.508z"/>
			<path fill="#FFFFFF" d="M214.338,5.231c-0.522-0.134-1.06-0.252-1.597-0.353l-0.056,0.307c0.527,0.1,1.059,0.217,1.576,0.349
				L214.338,5.231z"/>
			<path fill="#FFFFFF" d="M217.447,6.234c-0.505-0.198-1.024-0.384-1.541-0.551l-0.096,0.297c0.511,0.165,1.023,0.348,1.522,0.544
				L217.447,6.234z"/>
			<path fill="#FFFFFF" d="M233.551,28.766l0.312-0.019c-0.035-0.544-0.087-1.091-0.154-1.626l-0.31,0.038
				C233.464,27.69,233.516,28.23,233.551,28.766z"/>
			<path fill="#FFFFFF" d="M232.635,22.347c-0.169-0.516-0.356-1.033-0.557-1.535l-0.289,0.115c0.197,0.497,0.382,1.007,0.549,1.518
				L232.635,22.347z"/>
			<path fill="#FFFFFF" d="M228.95,45.721l-0.253-0.183c-0.314,0.432-0.648,0.86-0.989,1.273l0.24,0.199
				C228.294,46.593,228.633,46.16,228.95,45.721z"/>
			<path fill="#FFFFFF" d="M207.872,4.743V4.431c-0.544,0.001-1.095,0.02-1.634,0.054l0.021,0.311
				C206.79,4.762,207.334,4.744,207.872,4.743z"/>
			<path fill="#FFFFFF" d="M211.129,4.628c-0.538-0.066-1.085-0.116-1.625-0.149l-0.02,0.312c0.534,0.032,1.075,0.081,1.607,0.147
				L211.129,4.628z"/>
			<rect x="200.701" y="82.535" fill="#FFFFFF" width="1.621" height="0.311"/>
			<rect x="184.491" y="82.535" fill="#FFFFFF" width="1.622" height="0.311"/>
			<rect x="187.734" y="82.535" fill="#FFFFFF" width="1.619" height="0.311"/>
			<rect x="197.459" y="82.535" fill="#FFFFFF" width="1.621" height="0.311"/>
			<rect x="190.977" y="82.535" fill="#FFFFFF" width="1.621" height="0.311"/>
			<rect x="223.395" y="82.535" fill="#FFFFFF" width="1.62" height="0.311"/>
			<rect x="194.218" y="82.535" fill="#FFFFFF" width="1.62" height="0.311"/>
			<rect x="213.668" y="82.535" fill="#FFFFFF" width="1.622" height="0.311"/>
			<rect x="229.877" y="82.535" fill="#FFFFFF" width="1.62" height="0.311"/>
			<rect x="226.636" y="82.535" fill="#FFFFFF" width="1.62" height="0.311"/>
			<rect x="220.151" y="82.535" fill="#FFFFFF" width="1.622" height="0.311"/>
			<rect x="216.909" y="82.535" fill="#FFFFFF" width="1.621" height="0.311"/>
			<rect x="229.928" y="56.125" fill="#FFFFFF" width="1.622" height="0.312"/>
			<rect x="213.702" y="56.125" fill="#FFFFFF" width="1.622" height="0.312"/>
			<path fill="#FFFFFF" d="M205.59,56.334c0.235,0.021,0.473,0.039,0.707,0.054l0.018-0.312c-0.531-0.033-1.072-0.083-1.606-0.148
				l-0.025,0.197h-0.714v0.312h1.621V56.334z"/>
			<rect x="226.682" y="56.125" fill="#FFFFFF" width="1.623" height="0.312"/>
			<rect x="184.497" y="56.125" fill="#FFFFFF" width="1.622" height="0.312"/>
			<rect x="223.437" y="56.125" fill="#FFFFFF" width="1.623" height="0.312"/>
			<rect x="220.192" y="56.125" fill="#FFFFFF" width="1.622" height="0.312"/>
			<rect x="216.947" y="56.125" fill="#FFFFFF" width="1.623" height="0.312"/>
			<rect x="197.478" y="56.125" fill="#FFFFFF" width="1.623" height="0.312"/>
			<rect x="200.724" y="56.125" fill="#FFFFFF" width="1.622" height="0.312"/>
			<rect x="190.988" y="56.125" fill="#FFFFFF" width="1.622" height="0.312"/>
			<rect x="187.744" y="56.125" fill="#FFFFFF" width="1.621" height="0.312"/>
			<rect x="194.232" y="56.125" fill="#FFFFFF" width="1.622" height="0.312"/>
			<rect x="203.933" y="120.743" fill="#FFFFFF" width="1.616" height="0.313"/>
			<rect x="220.088" y="120.743" fill="#FFFFFF" width="1.615" height="0.313"/>
			<rect x="216.858" y="120.743" fill="#FFFFFF" width="1.615" height="0.313"/>
			<rect x="223.318" y="120.743" fill="#FFFFFF" width="1.617" height="0.313"/>
			<rect x="226.55" y="120.743" fill="#FFFFFF" width="1.616" height="0.313"/>
			<rect x="213.627" y="120.743" fill="#FFFFFF" width="1.614" height="0.313"/>
			<rect x="229.781" y="120.743" fill="#FFFFFF" width="1.616" height="0.313"/>
			<rect x="197.47" y="120.743" fill="#FFFFFF" width="1.617" height="0.313"/>
			<rect x="191.008" y="120.743" fill="#FFFFFF" width="1.616" height="0.313"/>
			<rect x="187.776" y="120.743" fill="#FFFFFF" width="1.615" height="0.313"/>
			<rect x="194.24" y="120.743" fill="#FFFFFF" width="1.616" height="0.313"/>
			<rect x="184.545" y="120.743" fill="#FFFFFF" width="1.617" height="0.313"/>
			<rect x="210.395" y="120.743" fill="#FFFFFF" width="1.615" height="0.313"/>
			<rect x="200.701" y="120.743" fill="#FFFFFF" width="1.615" height="0.313"/>
			<path fill="#FFFFFF" d="M233.979,31.058h-0.071c0.005-0.208,0.009-0.418,0.009-0.626v-0.054h-0.312v0.056
				c0,0.135-0.004,0.271-0.007,0.406H208.07V5.149h-0.312V30.84h-25.691v0.218h-0.158v89.778h0.003c0,0.021-0.003,0.041-0.003,0.062
				c0,14.34,11.668,26.004,26.005,26.004c14.338,0,26.003-11.664,26.003-26.004c0-0.021-0.001-0.041-0.001-0.062h0.063V31.058z
				 M182.223,33.707l0.203-0.025c-0.067-0.529-0.119-1.07-0.153-1.606l-0.05,0.003v-0.926h21.669
				c-11.124,1.735-19.935,10.545-21.669,21.67V33.707z M182.223,60.865c0.497,3.197,1.586,6.2,3.141,8.902
				c-1.555,2.701-2.644,5.704-3.141,8.901V60.865z M182.223,86.711c0.923,5.924,3.856,11.19,8.073,15.084
				c-4.217,3.892-7.15,9.158-8.073,15.082V86.711z M207.758,120.743h-0.594v0.313h0.594v25.529
				c-14.041-0.085-25.447-11.488-25.532-25.529h0.706v-0.313h-0.706c0.045-7.401,3.234-14.071,8.301-18.736
				c4.574,4.12,10.612,6.645,17.231,6.683V120.743z M207.758,108.376c-6.527-0.039-12.484-2.522-16.999-6.581
				c4.515-4.06,10.472-6.545,16.999-6.584V108.376z M207.758,94.899c-6.619,0.04-12.657,2.561-17.231,6.684
				c-5.066-4.666-8.256-11.335-8.301-18.737h0.652v-0.311h-0.652c0.028-4.523,1.232-8.769,3.317-12.455
				c3.892,6.552,10.574,11.259,18.4,12.464v0.302h1.622v-0.109c0.534,0.048,1.074,0.076,1.618,0.093v0.017h0.574V94.899z
				 M207.758,82.53c-9.391-0.057-17.6-5.176-22.034-12.763c4.435-7.586,12.644-12.708,22.034-12.764V82.53z M207.758,56.125h-0.546
				v0.312h0.546v0.254c-9.442,0.057-17.705,5.169-22.215,12.763c-2.11-3.728-3.32-8.029-3.32-12.61c0-0.136,0.008-0.271,0.01-0.406
				h0.647v-0.312h-0.64c0.381-13.783,11.662-24.887,25.518-24.97V56.125z M208.07,56.437h0.765V56.42
				c0.241-0.008,0.484-0.019,0.724-0.034l-0.021-0.312c-0.483,0.03-0.978,0.045-1.468,0.049V31.156
				c9.278,0.057,17.406,5.055,21.877,12.493c-0.112,0.187-0.226,0.372-0.341,0.553l0.264,0.169c0.086-0.136,0.169-0.275,0.256-0.414
				c2.093,3.598,3.337,7.744,3.459,12.169h-0.544v0.312h0.554c0.001,0.136,0.01,0.271,0.01,0.406c0,4.581-1.212,8.883-3.322,12.61
				c-4.509-7.594-12.771-12.706-22.212-12.763V56.437z M208.07,57.003c9.39,0.056,17.599,5.178,22.033,12.764
				c-4.435,7.587-12.644,12.706-22.033,12.763V57.003z M208.07,82.845h0.734v-0.021c0.547-0.019,1.088-0.049,1.622-0.102v0.123h1.62
				v-0.311h-0.116c7.805-1.216,14.469-5.917,18.352-12.455c2.088,3.687,3.291,7.932,3.318,12.455h-0.662v0.311h0.662
				c-0.045,7.402-3.235,14.071-8.299,18.737c-4.575-4.123-10.614-6.644-17.231-6.684V82.845z M208.07,95.211
				c6.525,0.039,12.482,2.524,16.999,6.584c-4.517,4.059-10.474,6.542-16.999,6.581V95.211z M233.601,121.056
				c-0.085,14.041-11.49,25.444-25.53,25.529v-25.529h0.709v-0.313h-0.709v-12.054c6.617-0.038,12.656-2.562,17.231-6.683
				c5.063,4.665,8.254,11.335,8.299,18.736h-0.602v0.313H233.601z M233.667,117.343c-0.841-6.113-3.809-11.556-8.137-15.548
				c4.328-3.996,7.296-9.438,8.137-15.55V117.343z M233.667,79.134c-0.464-3.37-1.574-6.535-3.205-9.367
				c1.631-2.832,2.741-5.997,3.205-9.368 M233.667,33.686l-0.263-0.032c-0.066,0.531-0.151,1.067-0.25,1.594l0.307,0.058
				c0.079-0.421,0.147-0.85,0.206-1.278v19.261c-0.479-3.477-1.644-6.734-3.357-9.635c0.136-0.227,0.268-0.457,0.394-0.688
				l-0.272-0.15c-0.098,0.177-0.199,0.353-0.302,0.528c-3.905-6.401-10.495-10.989-18.193-12.19h21.658
				c-0.01,0.3-0.021,0.6-0.04,0.896l0.113,0.007V33.686z"/>
		</g>
		<g opacity="0.3">
			<path fill="#FFFFFF" d="M290.236,48.237l-0.229-0.215c-0.367,0.392-0.75,0.776-1.14,1.142l0.214,0.227
				C289.476,49.021,289.865,48.632,290.236,48.237z"/>
			<path fill="#FFFFFF" d="M277.684,55.321l0.078,0.304c0.525-0.135,1.052-0.288,1.567-0.456l-0.096-0.297
				C278.724,55.037,278.201,55.188,277.684,55.321z"/>
			<path fill="#FFFFFF" d="M276.109,55.672c-0.528,0.1-1.063,0.185-1.593,0.251l0.025,0.202h-0.715v0.312h1.623v-0.312h-0.133
				c0.284-0.044,0.568-0.093,0.851-0.146L276.109,55.672z"/>
			<path fill="#FFFFFF" d="M249.333,44.382c0.289,0.455,0.599,0.91,0.919,1.35l0.252-0.185c-0.316-0.434-0.621-0.882-0.908-1.333
				L249.333,44.382z"/>
			<path fill="#FFFFFF" d="M254.914,50.238c-0.413-0.344-0.82-0.702-1.21-1.067l-0.214,0.227c0.395,0.37,0.807,0.733,1.226,1.081
				L254.914,50.238z"/>
			<path fill="#FFFFFF" d="M252.562,48.03c-0.368-0.391-0.727-0.797-1.067-1.209l-0.24,0.199c0.345,0.416,0.708,0.828,1.081,1.224
				L252.562,48.03z"/>
			<path fill="#FFFFFF" d="M287.659,50.232c-0.413,0.34-0.841,0.672-1.275,0.988l0.185,0.252c0.438-0.319,0.873-0.656,1.289-1.002
				L287.659,50.232z"/>
			<path fill="#FFFFFF" d="M283.775,7.624c-0.475-0.262-0.966-0.51-1.457-0.741l-0.132,0.282c0.485,0.229,0.97,0.475,1.439,0.732
				L283.775,7.624z"/>
			<path fill="#FFFFFF" d="M261.789,6.554l-0.116-0.29c-0.5,0.199-1.003,0.418-1.495,0.65l0.133,0.283
				C260.799,6.967,261.294,6.75,261.789,6.554z"/>
			<path fill="#FFFFFF" d="M283.664,52.95l0.15,0.273c0.475-0.261,0.946-0.54,1.404-0.831l-0.168-0.265
				C284.599,52.417,284.133,52.693,283.664,52.95z"/>
			<path fill="#FFFFFF" d="M258.876,7.931l-0.151-0.273c-0.473,0.262-0.945,0.542-1.403,0.834l0.169,0.264
				C257.942,8.467,258.409,8.189,258.876,7.931z"/>
			<path fill="#FFFFFF" d="M280.752,54.324l0.114,0.29c0.502-0.198,1.006-0.416,1.496-0.648l-0.134-0.282
				C281.744,53.912,281.248,54.127,280.752,54.324z"/>
			<path fill="#FFFFFF" d="M248.02,19.519l-0.284-0.134c-0.231,0.495-0.45,1-0.647,1.501l0.29,0.116
				C247.574,20.506,247.79,20.007,248.02,19.519z"/>
			<path fill="#FFFFFF" d="M253.677,11.724l-0.214-0.228c-0.397,0.373-0.786,0.762-1.154,1.156l0.228,0.213
				C252.901,12.478,253.285,12.093,253.677,11.724z"/>
			<path fill="#FFFFFF" d="M249.573,16.69l-0.264-0.168c-0.289,0.457-0.569,0.931-0.833,1.407l0.276,0.15
				C249.01,17.608,249.286,17.141,249.573,16.69z"/>
			<path fill="#FFFFFF" d="M251.471,14.077l-0.241-0.198c-0.348,0.42-0.684,0.855-1,1.291l0.252,0.184
				C250.795,14.921,251.127,14.493,251.471,14.077z"/>
			<path fill="#FFFFFF" d="M246.832,22.523l-0.297-0.096c-0.166,0.516-0.319,1.043-0.452,1.568l0.302,0.077
				C246.518,23.554,246.667,23.033,246.832,22.523z"/>
			<path fill="#FFFFFF" d="M256.158,9.666l-0.185-0.254c-0.438,0.319-0.87,0.657-1.287,1.004l0.197,0.239
				C255.298,10.314,255.726,9.979,256.158,9.666z"/>
			<path fill="#FFFFFF" d="M264.854,5.554l-0.078-0.303c-0.524,0.135-1.053,0.289-1.567,0.457l0.097,0.298
				C263.815,5.839,264.335,5.688,264.854,5.554z"/>
			<path fill="#FFFFFF" d="M246.036,25.649l-0.308-0.058c-0.1,0.532-0.185,1.075-0.251,1.613l0.31,0.038
				C245.853,26.711,245.937,26.174,246.036,25.649z"/>
			<path fill="#FFFFFF" d="M266.482,55.677c-0.525-0.1-1.055-0.216-1.574-0.35l-0.078,0.304c0.527,0.134,1.062,0.253,1.594,0.353
				L266.482,55.677z"/>
			<path fill="#FFFFFF" d="M263.358,54.879c-0.509-0.164-1.021-0.349-1.521-0.547l-0.114,0.291c0.506,0.2,1.024,0.386,1.54,0.553
				L263.358,54.879z"/>
			<path fill="#FFFFFF" d="M245.639,28.849l-0.311-0.019c-0.033,0.529-0.049,1.069-0.049,1.604v0.028l0.311-0.028
				C245.59,29.907,245.606,29.373,245.639,28.849z"/>
			<path fill="#FFFFFF" d="M260.354,53.692c-0.484-0.229-0.968-0.476-1.439-0.734l-0.15,0.273c0.477,0.263,0.968,0.512,1.457,0.743
				L260.354,53.692z"/>
			<path fill="#FFFFFF" d="M257.524,52.135c-0.448-0.286-0.897-0.591-1.334-0.908l-0.185,0.252c0.442,0.321,0.896,0.63,1.352,0.92
				L257.524,52.135z"/>
			<path fill="#FFFFFF" d="M247.757,41.527c0.23,0.488,0.481,0.978,0.742,1.451l0.273-0.149c-0.259-0.471-0.506-0.953-0.734-1.435
				L247.757,41.527z"/>
			<path fill="#FFFFFF" d="M294.796,19.317c-0.231-0.487-0.48-0.976-0.745-1.452l-0.272,0.151c0.26,0.47,0.509,0.953,0.734,1.434
				L294.796,19.317z"/>
			<path fill="#FFFFFF" d="M268.022,4.949l-0.04-0.31c-0.536,0.066-1.079,0.153-1.613,0.255l0.061,0.308
				C266.956,5.101,267.492,5.015,268.022,4.949z"/>
			<path fill="#FFFFFF" d="M286.535,9.372c-0.44-0.318-0.895-0.627-1.354-0.917l-0.166,0.263c0.453,0.286,0.902,0.592,1.337,0.907
				L286.535,9.372z"/>
			<path fill="#FFFFFF" d="M291.292,13.828c-0.346-0.417-0.709-0.829-1.082-1.223l-0.228,0.214c0.368,0.39,0.729,0.796,1.068,1.208
				L291.292,13.828z"/>
			<path fill="#FFFFFF" d="M289.054,11.452c-0.396-0.37-0.808-0.733-1.227-1.079l-0.199,0.241c0.415,0.341,0.821,0.7,1.213,1.065
				L289.054,11.452z"/>
			<path fill="#FFFFFF" d="M245.74,35.333c0.101,0.532,0.222,1.069,0.356,1.593l0.302-0.076c-0.133-0.52-0.252-1.049-0.352-1.575
				L245.74,35.333z"/>
			<path fill="#FFFFFF" d="M246.552,38.495c0.168,0.514,0.354,1.031,0.556,1.536l0.29-0.115c-0.199-0.499-0.383-1.01-0.548-1.517
				L246.552,38.495z"/>
			<path fill="#FFFFFF" d="M294.534,41.375l0.282,0.133c0.23-0.489,0.449-0.994,0.65-1.501l-0.291-0.114
				C294.979,40.393,294.762,40.892,294.534,41.375z"/>
			<path fill="#FFFFFF" d="M293.218,16.462c-0.291-0.455-0.601-0.908-0.922-1.348l-0.252,0.185c0.317,0.434,0.624,0.882,0.91,1.331
				L293.218,16.462z"/>
			<path fill="#FFFFFF" d="M295.724,38.372l0.297,0.097c0.168-0.518,0.321-1.045,0.454-1.568l-0.302-0.078
				C296.04,37.339,295.89,37.861,295.724,38.372z"/>
			<path fill="#FFFFFF" d="M296.819,25.508c-0.102-0.532-0.223-1.068-0.358-1.593l-0.303,0.078c0.135,0.518,0.254,1.049,0.355,1.573
				L296.819,25.508z"/>
			<path fill="#FFFFFF" d="M277.707,5.231c-0.523-0.134-1.061-0.252-1.594-0.353l-0.058,0.307c0.528,0.1,1.057,0.217,1.574,0.349
				L277.707,5.231z"/>
			<path fill="#FFFFFF" d="M280.816,6.234c-0.504-0.198-1.023-0.384-1.541-0.551l-0.094,0.297c0.509,0.165,1.021,0.348,1.52,0.544
				L280.816,6.234z"/>
			<path fill="#FFFFFF" d="M296.92,28.766l0.312-0.019c-0.034-0.544-0.086-1.091-0.154-1.626l-0.31,0.038
				C296.834,27.69,296.886,28.23,296.92,28.766z"/>
			<path fill="#FFFFFF" d="M296.005,22.347c-0.17-0.516-0.357-1.033-0.558-1.535l-0.29,0.115c0.198,0.497,0.383,1.007,0.55,1.518
				L296.005,22.347z"/>
			<path fill="#FFFFFF" d="M292.32,45.721l-0.252-0.183c-0.315,0.432-0.647,0.86-0.991,1.273l0.24,0.199
				C291.664,46.593,292.002,46.16,292.32,45.721z"/>
			<path fill="#FFFFFF" d="M271.241,4.743l-0.002-0.312c-0.543,0.001-1.092,0.02-1.631,0.054l0.019,0.311
				C270.161,4.762,270.703,4.744,271.241,4.743z"/>
			<path fill="#FFFFFF" d="M274.497,4.628c-0.537-0.066-1.084-0.116-1.624-0.149l-0.019,0.312c0.533,0.032,1.073,0.081,1.606,0.147
				L274.497,4.628z"/>
			<rect x="264.07" y="82.535" fill="#FFFFFF" width="1.621" height="0.311"/>
			<rect x="247.861" y="82.535" fill="#FFFFFF" width="1.622" height="0.311"/>
			<rect x="251.104" y="82.535" fill="#FFFFFF" width="1.62" height="0.311"/>
			<rect x="260.83" y="82.535" fill="#FFFFFF" width="1.62" height="0.311"/>
			<rect x="254.345" y="82.535" fill="#FFFFFF" width="1.621" height="0.311"/>
			<rect x="286.762" y="82.535" fill="#FFFFFF" width="1.621" height="0.311"/>
			<rect x="257.587" y="82.535" fill="#FFFFFF" width="1.62" height="0.311"/>
			<rect x="277.037" y="82.535" fill="#FFFFFF" width="1.621" height="0.311"/>
			<rect x="293.247" y="82.535" fill="#FFFFFF" width="1.62" height="0.311"/>
			<rect x="290.004" y="82.535" fill="#FFFFFF" width="1.621" height="0.311"/>
			<rect x="283.521" y="82.535" fill="#FFFFFF" width="1.62" height="0.311"/>
			<rect x="280.279" y="82.535" fill="#FFFFFF" width="1.62" height="0.311"/>
			<rect x="293.297" y="56.125" fill="#FFFFFF" width="1.621" height="0.312"/>
			<rect x="277.072" y="56.125" fill="#FFFFFF" width="1.622" height="0.312"/>
			<path fill="#FFFFFF" d="M268.959,56.334c0.235,0.021,0.473,0.039,0.706,0.054l0.02-0.312c-0.533-0.033-1.074-0.083-1.607-0.148
				l-0.023,0.197h-0.717v0.312h1.622V56.334z"/>
			<rect x="290.053" y="56.125" fill="#FFFFFF" width="1.621" height="0.312"/>
			<rect x="247.866" y="56.125" fill="#FFFFFF" width="1.623" height="0.312"/>
			<rect x="286.807" y="56.125" fill="#FFFFFF" width="1.623" height="0.312"/>
			<rect x="283.562" y="56.125" fill="#FFFFFF" width="1.623" height="0.312"/>
			<rect x="280.317" y="56.125" fill="#FFFFFF" width="1.623" height="0.312"/>
			<rect x="260.847" y="56.125" fill="#FFFFFF" width="1.622" height="0.312"/>
			<rect x="264.092" y="56.125" fill="#FFFFFF" width="1.623" height="0.312"/>
			<rect x="254.356" y="56.125" fill="#FFFFFF" width="1.622" height="0.312"/>
			<rect x="251.111" y="56.125" fill="#FFFFFF" width="1.623" height="0.312"/>
			<rect x="257.601" y="56.125" fill="#FFFFFF" width="1.623" height="0.312"/>
			<rect x="267.302" y="120.743" fill="#FFFFFF" width="1.616" height="0.313"/>
			<rect x="283.458" y="120.743" fill="#FFFFFF" width="1.615" height="0.313"/>
			<rect x="280.227" y="120.743" fill="#FFFFFF" width="1.614" height="0.313"/>
			<rect x="286.688" y="120.743" fill="#FFFFFF" width="1.616" height="0.313"/>
			<rect x="289.921" y="120.743" fill="#FFFFFF" width="1.614" height="0.313"/>
			<rect x="276.995" y="120.743" fill="#FFFFFF" width="1.616" height="0.313"/>
			<rect x="293.15" y="120.743" fill="#FFFFFF" width="1.615" height="0.313"/>
			<rect x="260.841" y="120.743" fill="#FFFFFF" width="1.614" height="0.313"/>
			<rect x="254.379" y="120.743" fill="#FFFFFF" width="1.614" height="0.313"/>
			<rect x="251.146" y="120.743" fill="#FFFFFF" width="1.615" height="0.313"/>
			<rect x="257.609" y="120.743" fill="#FFFFFF" width="1.614" height="0.313"/>
			<rect x="247.915" y="120.743" fill="#FFFFFF" width="1.616" height="0.313"/>
			<rect x="273.764" y="120.743" fill="#FFFFFF" width="1.616" height="0.313"/>
			<rect x="264.07" y="120.743" fill="#FFFFFF" width="1.617" height="0.313"/>
			<path fill="#FFFFFF" d="M297.349,31.058h-0.072c0.004-0.208,0.009-0.418,0.009-0.626v-0.054h-0.312v0.056
				c0,0.135-0.004,0.271-0.005,0.406h-25.528V5.149h-0.312V30.84h-25.691v0.218h-0.156v89.778h0.001
				c0,0.021-0.001,0.041-0.001,0.062c0,14.34,11.666,26.004,26.004,26.004s26.002-11.664,26.002-26.004
				c0-0.021-0.002-0.041-0.002-0.062h0.065V31.058z M245.59,33.707l0.205-0.025c-0.067-0.529-0.119-1.07-0.152-1.606l-0.053,0.003
				v-0.926h21.671c-11.123,1.735-19.935,10.545-21.671,21.67V33.707z M245.59,60.865c0.5,3.197,1.588,6.2,3.142,8.902
				c-1.554,2.701-2.642,5.704-3.142,8.901V60.865z M245.59,86.711c0.924,5.924,3.857,11.19,8.075,15.084
				c-4.218,3.892-7.151,9.158-8.075,15.082V86.711z M271.127,120.743h-0.595v0.313h0.595v25.529
				c-14.042-0.085-25.447-11.488-25.532-25.529h0.706v-0.313h-0.706c0.044-7.401,3.234-14.071,8.3-18.736
				c4.575,4.12,10.614,6.645,17.232,6.683V120.743z M271.127,108.376c-6.526-0.039-12.484-2.522-17-6.581
				c4.516-4.06,10.474-6.545,17-6.584V108.376z M271.127,94.899c-6.618,0.04-12.657,2.561-17.232,6.684
				c-5.065-4.666-8.256-11.335-8.3-18.737h0.653v-0.311h-0.653c0.027-4.523,1.231-8.769,3.317-12.455
				c3.892,6.552,10.575,11.259,18.4,12.464v0.302h1.621v-0.109c0.536,0.048,1.077,0.076,1.62,0.093v0.017h0.573V94.899z
				 M271.127,82.53c-9.391-0.057-17.599-5.176-22.035-12.763c4.437-7.586,12.645-12.708,22.035-12.764V82.53z M271.127,56.125
				h-0.545v0.312h0.545v0.254c-9.441,0.057-17.704,5.169-22.215,12.763c-2.11-3.728-3.322-8.029-3.322-12.61
				c0-0.136,0.011-0.271,0.012-0.406h0.648v-0.312h-0.642c0.382-13.783,11.665-24.887,25.519-24.97V56.125z M271.439,56.437h0.765
				V56.42c0.242-0.008,0.485-0.019,0.724-0.034l-0.02-0.312c-0.484,0.03-0.979,0.045-1.469,0.049V31.156
				c9.278,0.057,17.405,5.055,21.878,12.493c-0.112,0.187-0.226,0.372-0.341,0.553l0.263,0.169c0.087-0.136,0.17-0.275,0.253-0.414
				c2.097,3.598,3.341,7.744,3.463,12.169h-0.543v0.312h0.551c0.003,0.136,0.01,0.271,0.01,0.406c0,4.581-1.21,8.883-3.32,12.61
				c-4.511-7.594-12.772-12.706-22.213-12.763V56.437z M271.439,57.003c9.391,0.056,17.598,5.178,22.032,12.764
				c-4.435,7.587-12.642,12.706-22.032,12.763V57.003z M271.439,82.845h0.736v-0.021c0.544-0.019,1.086-0.049,1.621-0.102v0.123
				h1.62v-0.311h-0.115c7.804-1.216,14.468-5.917,18.351-12.455c2.087,3.687,3.291,7.932,3.316,12.455h-0.66v0.311h0.66
				c-0.042,7.402-3.233,14.071-8.3,18.737c-4.573-4.123-10.611-6.644-17.229-6.684V82.845z M271.439,95.211
				c6.526,0.039,12.481,2.524,16.998,6.584c-4.517,4.059-10.472,6.542-16.998,6.581V95.211z M296.969,121.056
				c-0.084,14.041-11.489,25.444-25.529,25.529v-25.529h0.709v-0.313h-0.709v-12.054c6.618-0.038,12.656-2.562,17.229-6.683
				c5.066,4.665,8.258,11.335,8.3,18.736h-0.602v0.313H296.969z M297.036,117.343c-0.839-6.113-3.81-11.556-8.136-15.548
				c4.326-3.996,7.297-9.438,8.136-15.55V117.343z M297.036,79.134c-0.463-3.37-1.573-6.535-3.203-9.367
				c1.63-2.832,2.74-5.997,3.203-9.368V79.134z M297.036,33.686l-0.264-0.032c-0.065,0.531-0.15,1.067-0.249,1.594l0.308,0.058
				c0.08-0.421,0.147-0.85,0.205-1.278v19.261c-0.478-3.477-1.644-6.734-3.356-9.635c0.135-0.227,0.266-0.457,0.395-0.688
				l-0.273-0.15c-0.1,0.177-0.2,0.353-0.303,0.528c-3.904-6.401-10.495-10.989-18.193-12.19h21.658
				c-0.009,0.3-0.021,0.6-0.039,0.896l0.112,0.007V33.686z"/>
		</g>
		<g>
			<path fill="#B69551" d="M230.488,80.382c-0.218-2.264-0.36-5.536-0.516-8.999c-0.165-3.736-0.336-7.6-0.607-10.11l-0.212-1.965
				c-0.779-7.257-2.083-19.405-3.166-23.922c-1.555-6.481-3.689-10.909-6.769-16.926c-0.944-1.844-4.657-7.737-5.65-9.037
				l-0.301-0.398c-3.033-3.981-3.215-4.221-5.563-4.221c-2.352,0-2.533,0.239-5.565,4.221l-0.303,0.398
				c-0.991,1.3-4.705,7.193-5.649,9.037c-3.08,6.018-5.214,10.446-6.768,16.926c-1.087,4.526-2.392,16.692-3.172,23.963
				l-0.206,1.924c-0.272,2.511-0.443,6.377-0.608,10.115c-0.154,3.461-0.299,6.73-0.516,8.994c-0.172,1.786-0.673,4.081-1.251,6.741
				c-1.932,8.887-4.582,21.058,2.48,27.236c7.574,6.629,20.005,6.82,21.397,6.82h0.152h0.165c1.394,0,13.821-0.191,21.398-6.82
				c7.062-6.178,4.412-18.349,2.479-27.235C231.16,84.466,230.661,82.168,230.488,80.382z M228.85,113.89
				c-7.405,6.479-19.619,6.666-20.988,6.666h-0.165h-0.152c-1.369,0-13.582-0.187-20.987-6.666
				c-6.786-5.937-4.182-17.898-2.28-26.634c0.584-2.679,1.085-4.991,1.262-6.814c0.219-2.277,0.363-5.557,0.518-9.026
				c0.164-3.729,0.335-7.584,0.606-10.075l0.205-1.926c0.78-7.254,2.083-19.396,3.159-23.882c1.536-6.413,3.657-10.811,6.717-16.786
				c0.934-1.827,4.609-7.659,5.59-8.945l0.303-0.397c3.026-3.975,3.026-3.975,5.068-3.975c2.04,0,2.04,0,5.066,3.975l0.303,0.397
				c0.979,1.286,4.654,7.118,5.589,8.945c3.06,5.975,5.179,10.371,6.717,16.786c1.075,4.477,2.376,16.6,3.155,23.842l0.21,1.966
				c0.269,2.49,0.44,6.344,0.605,10.071c0.154,3.471,0.299,6.749,0.52,9.03c0.174,1.823,0.678,4.137,1.261,6.816
				C233.03,95.993,235.634,107.954,228.85,113.89z"/>
			<path fill="#B69551" d="M223.925,54.496c-2.068-5.899-3.855-10.993-6.704-28.078c-2.995-17.979-7.75-19.376-9.136-19.376
				c-0.085,0-0.148,0.007-0.186,0.011h-0.394c-0.039-0.004-0.1-0.011-0.186-0.011c-1.386,0-6.142,1.396-9.138,19.376
				c-2.846,17.083-4.634,22.177-6.701,28.075c-0.372,1.061-0.755,2.155-1.152,3.344c-2.967,8.866-4.291,16.177-4.291,36.061v1.124
				c0,0.049,0.004,1.227,0.419,2.423c0.711,2.064,2.21,2.91,4.248,2.374c2.865-0.753,4.437-1.434,5.956-2.092
				c1.007-0.436,1.96-0.848,3.272-1.284c3.284-1.096,7.725-1.109,7.771-1.109c0.043,0,4.483,0.014,7.766,1.109
				c1.314,0.437,2.268,0.849,3.274,1.284c1.52,0.658,3.091,1.339,5.959,2.092c0.399,0.104,0.784,0.158,1.14,0.158
				c2.787,0,3.523-3.241,3.523-4.955v-1.124c0-19.884-1.322-27.194-4.29-36.061C224.68,56.65,224.296,55.554,223.925,54.496z
				 M228.742,95.021c0,0.043-0.033,4.331-2.899,4.331c-0.302,0-0.634-0.047-0.983-0.138c-2.819-0.742-4.369-1.411-5.867-2.06
				c-0.976-0.423-1.984-0.86-3.324-1.307c-3.378-1.126-7.779-1.14-7.964-1.14c-0.188,0-4.588,0.014-7.967,1.14
				c-1.339,0.446-2.348,0.884-3.323,1.306c-1.499,0.649-3.048,1.317-5.869,2.061c-0.349,0.091-0.68,0.138-0.982,0.138
				c-2.861,0-2.899-4.154-2.899-4.331v-1.124c0-19.797,1.312-27.062,4.258-35.862c0.396-1.185,0.779-2.277,1.149-3.335
				c2.077-5.926,3.873-11.044,6.729-28.18c3.055-18.325,7.972-18.854,8.521-18.854c0.059,0,0.094,0.005,0.102,0.006l0.502,0.006
				l0.056-0.005c0.012-0.002,0.047-0.007,0.105-0.007c0.551,0,5.468,0.529,8.521,18.854c2.857,17.137,4.652,22.256,6.73,28.182
				c0.369,1.057,0.753,2.15,1.149,3.333c2.943,8.8,4.257,16.065,4.257,35.862V95.021z"/>
			<path fill="#B69551" d="M293.146,80.172c-0.478-2.007-0.928-3.903-1.095-5.64c-0.201-2.083-0.332-5.096-0.475-8.286
				c-0.152-3.451-0.312-7.02-0.562-9.338c-0.358-3.309,0.084-7.828,0.475-11.815c0.318-3.265,0.62-6.35,0.469-8.455
				c-0.327-4.562-3.498-10.359-6.297-15.475c-0.73-1.335-1.419-2.596-2.012-3.75c-0.879-1.721-3.603-6.781-4.525-7.99
				c-3.101-4.07-5.842-4.619-8.114-4.619c-2.271,0-5.011,0.549-8.115,4.619c-0.918,1.207-3.643,6.27-4.523,7.99
				c-0.591,1.153-1.28,2.413-2.009,3.747c-2.8,5.116-5.972,10.916-6.298,15.478c-0.15,2.105,0.15,5.191,0.469,8.456
				c0.39,3.987,0.832,8.506,0.473,11.814c-0.249,2.315-0.407,5.88-0.561,9.326c-0.141,3.194-0.275,6.212-0.476,8.298
				c-0.167,1.736-0.617,3.632-1.095,5.64c-1.531,6.44-3.268,13.741,2.798,20.672c0.779,0.894,1.692,1.732,2.711,2.492v-0.001
				c3.35,2.614,7.975,4.361,13.745,5.2v12.645h5.764v-12.645c5.791-0.842,10.428-2.599,13.779-5.226l0,0
				c0-0.001,0-0.001,0.004-0.002c0-0.001,0.001-0.001,0.003-0.002l0,0c1.003-0.755,1.903-1.582,2.673-2.462
				C296.414,93.914,294.679,86.613,293.146,80.172z M265.111,82.405c-0.838-5.032-3.197-13.704-6.411-18.879
				c0.329,0.28,0.663,0.565,1.002,0.856c3.951,3.371,8.426,7.19,8.426,9.517v33.986c-3.241-0.483-8.968-1.759-13.371-5.05l0,0
				c-0.296-0.23-0.57-0.457-0.826-0.683c0.473,0.026,1.089,0.018,1.78-0.084c2.005-0.296,3.219-0.934,4.819-2.534
				C264.283,95.781,266.169,88.737,265.111,82.405z M273.267,120.556h-4.513v-11.951v-0.357v-0.272V73.899v-0.021
				c0-2.614-4.395-6.364-8.644-9.991c-3.33-2.84-6.771-5.776-6.771-7.236c0-7.31,17.487-7.394,17.677-7.394
				c0.177,0,17.661,0.084,17.661,7.394c0,1.46-3.439,4.397-6.767,7.236c-4.25,3.627-8.645,7.377-8.645,9.991V120.556z
				 M287.296,102.811c-4.409,3.308-10.151,4.59-13.403,5.074V73.899c0-2.326,4.477-6.146,8.426-9.517
				c0.339-0.291,0.673-0.576,1.003-0.856c-3.216,5.175-5.573,13.847-6.413,18.879c-1.055,6.332,0.83,13.376,4.582,17.13
				c1.6,1.601,2.816,2.238,4.819,2.534c0.691,0.102,1.307,0.108,1.78,0.084C287.844,102.368,287.581,102.586,287.296,102.811z
				 M289.88,100.432c-0.298,0.344-0.619,0.677-0.956,1.001c-0.075,0.016-1.148,0.222-2.524,0.018
				c-1.872-0.276-2.959-0.848-4.469-2.356c-4.034-4.037-5.271-11.4-4.405-16.586c1.647-9.891,5.406-18.207,8.105-21.011l-0.01-0.011
				c2.163-1.964,3.682-3.638,3.682-4.836c0-3.283-3.142-5.708-9.084-7.013c-4.532-0.994-9.156-1.006-9.216-1.006
				c-0.747,0-18.286,0.092-18.286,8.019c0,1.198,1.52,2.872,3.683,4.837l-0.009,0.01c2.698,2.804,6.458,11.12,8.105,21.011
				c0.864,5.186-0.372,12.549-4.407,16.586c-1.51,1.509-2.594,2.08-4.467,2.356c-1.397,0.205-2.483-0.01-2.526-0.018
				c-0.339-0.324-0.655-0.657-0.956-1.001c-5.851-6.686-4.155-13.821-2.658-20.116c0.481-2.029,0.938-3.944,1.109-5.723
				c0.202-2.104,0.334-5.128,0.478-8.331c0.15-3.438,0.31-6.99,0.558-9.286c0.365-3.374-0.08-7.926-0.474-11.942
				c-0.315-3.238-0.614-6.297-0.467-8.351c0.315-4.426,3.455-10.162,6.224-15.223c0.732-1.339,1.422-2.602,2.017-3.763
				c0.874-1.707,3.569-6.72,4.464-7.896c2.938-3.853,5.502-4.372,7.619-4.372c2.12,0,4.683,0.52,7.619,4.372
				c0.896,1.179,3.593,6.19,4.465,7.896c0.596,1.162,1.287,2.427,2.019,3.765c2.769,5.061,5.905,10.796,6.223,15.221
				c0.146,2.054-0.152,5.112-0.468,8.35c-0.394,4.018-0.838,8.569-0.473,11.943c0.249,2.298,0.406,5.856,0.559,9.298
				c0.141,3.198,0.275,6.219,0.478,8.319c0.17,1.778,0.626,3.694,1.108,5.723C294.034,86.611,295.73,93.747,289.88,100.432z"/>
		</g>
	</g>
</g>
</svg>
