<?xml version="1.0" encoding="iso-8859-1"?>
<!-- Generator: Adobe Illustrator 19.2.1, SVG Export Plug-In . SVG Version: 6.00 Build 0)  -->
<svg version="1.1" xmlns="http://www.w3.org/2000/svg" xmlns:xlink="http://www.w3.org/1999/xlink" x="0px" y="0px"
	 viewBox="0 0 90.582 108.022" style="enable-background:new 0 0 90.582 108.022;" xml:space="preserve">
<g id="gaspea">
	<g style="opacity:0.5;">
		<path style="fill-rule:evenodd;clip-rule:evenodd;" d="M89.429,84.566c-1.232-4.555-3.574-8.594-7.642-11.607
			c-4.428-3.28-9.405-4.688-14.599-5.846c-5.147-1.147-10.473-1.909-15.339-3.812c-11.45-4.478-18.271-14.044-24.479-24.003
			c-3.467-5.559-6.574-11.34-9.826-17.032c-2.008-3.514-3.962-7.059-5.977-10.568c-2.223-3.87-3.748-8.25-7.617-10.938
			C3.199,0.239,2.085,0.24,1.139,0c-0.03,0.218-0.062,0.436-0.092,0.654c6.29,3.365,8.607,9.52,11.043,15.51
			c-0.998,0.617-1.802,1.113-2.246,1.389c4.098,6.27,8.116,12.063,11.76,18.084c4.615,7.627,8.941,15.439,15.717,21.454
			c2.148,1.906,4.485,3.597,7.046,5.633c-1.636,0.289-2.95,0.389-4.18,0.763c-3.714,1.129-7.33,2.651-11.101,3.506
			C17.248,69.679,7.355,75.293,0,85.656c3.156,2.368,6.357,4.77,9.65,7.239c-1.019,0.863-2,1.694-3.367,2.852
			c2.989,1.967,5.815,3.653,8.451,5.596c6.521,4.801,14.051,6.203,21.852,6.58c17.999,0.869,34.984-4.108,51.903-9.313
			c0.908-0.279,2.12-1.688,2.092-2.536C90.453,92.22,90.424,88.245,89.429,84.566z"/>
	</g>
</g>
<g id="Layer_1">
</g>
</svg>
