<?xml version="1.0" encoding="iso-8859-1"?>
<!-- Generator: Adobe Illustrator 19.2.1, SVG Export Plug-In . SVG Version: 6.00 Build 0)  -->
<svg version="1.1" xmlns="http://www.w3.org/2000/svg" xmlns:xlink="http://www.w3.org/1999/xlink" x="0px" y="0px"
	 viewBox="0 0 93.539 94.304" style="enable-background:new 0 0 93.539 94.304;" xml:space="preserve">
<g id="meio">
	<g style="opacity:0.5;">
		<path style="fill-rule:evenodd;clip-rule:evenodd;" d="M93.137,43.321c-1.66-3.188-2.963-6.605-4.945-9.572
			c-2.987-4.47-4.919-4.958-10.181-3.457c-9.905,2.827-19.781,5.756-29.709,8.499c-1.161,0.321-2.777,0.097-3.815-0.507
			c-1.357-0.79-2.404-2.158-3.486-3.366c-5.232-5.845-10.552-11.618-15.61-17.611C19.311,10.101,10.746,6.086,3.682,0
			c-1.041,3.07-2.03,6.158-3.138,9.204c-0.959,2.638-0.719,4.977,1.263,7.069c2.508,2.648,4.938,5.372,7.487,7.98
			c3.784,3.874,8.303,7.229,11.279,11.635c2.865,4.242,6.59,7.259,10.273,10.471c3.046,2.656,3.346,4.071,2.258,8.062
			c-1.846,6.772-5.53,13.044-4.888,20.553c0.175,2.042,0.757,2.658,2.092,3.385c6.22,3.387,12.486,6.689,18.651,10.171
			c2.957,1.67,5.726,3.673,8.963,5.773c0.437-4.213,0.6-7.776,1.214-11.259c1.022-5.794,1.953-11.651,3.635-17.268
			c1.55-5.174,4.99-9.504,9.876-11.898c6.241-3.057,12.781-5.529,19.29-7.994C93.612,45.251,93.903,44.792,93.137,43.321z"/>
	</g>
</g>
<g id="Layer_1">
</g>
</svg>
