<?xml version="1.0" encoding="iso-8859-1"?>
<!-- Generator: Adobe Illustrator 19.2.1, SVG Export Plug-In . SVG Version: 6.00 Build 0)  -->
<svg version="1.1" xmlns="http://www.w3.org/2000/svg" xmlns:xlink="http://www.w3.org/1999/xlink" x="0px" y="0px"
	 viewBox="0 0 56.602 61.719" style="enable-background:new 0 0 56.602 61.719;" xml:space="preserve">
<g id="tira">
	<path style="opacity:0.5;fill-rule:evenodd;clip-rule:evenodd;" d="M56.036,51.718c-1.797-3.487-4.494-6.562-7.078-9.58
		c-3.875-4.526-7.879-8.955-12.024-13.235c-6.568-6.781-13.079-13.646-20.047-20C13.127,5.475,8.467,3.034,3.997,0
		C2.732,3.573,1.366,7.432,0,11.291v2c0.972,1.409,1.831,2.914,2.934,4.212c7.511,8.836,16.521,16.254,23.85,25.285
		c3.07,3.782,6.58,7.232,10.101,10.614c2.779,2.669,5.712,5.25,8.89,7.409c2.827,1.92,5.926,0.47,8.13-1.325
		C56.16,57.647,57.395,54.355,56.036,51.718z"/>
</g>
<g id="Layer_1">
</g>
</svg>
