<?xml version="1.0" encoding="iso-8859-1"?>
<!-- Generator: Adobe Illustrator 19.2.1, SVG Export Plug-In . SVG Version: 6.00 Build 0)  -->
<svg version="1.1" xmlns="http://www.w3.org/2000/svg" xmlns:xlink="http://www.w3.org/1999/xlink" x="0px" y="0px"
	 viewBox="0 0 180.637 137.506" style="enable-background:new 0 0 180.637 137.506;" xml:space="preserve">
<g id="contraforte">
	<path style="opacity:0.4;fill-rule:evenodd;clip-rule:evenodd;" d="M176.013,69.952c-5.503-17.723-11.71-35.227-17.636-52.817
		c-0.211-0.624-0.605-1.227-0.654-1.859c-0.811-10.445-8.205-13.177-16.854-14.496c-0.44-0.066-0.823-0.511-1.232-0.779
		c-2,0-4,0-6,0c-6.081,2.072-12.162,4.146-19.221,6.552c4.344,0.623,7.522,0.786,10.506,1.637c1.416,0.404,3.459,2.067,3.519,3.248
		c0.878,16.77,1.569,33.552,1.922,50.34c0.028,1.356-2.602,3.732-4.254,3.99c-6.143,0.958-12.688-1.983-18.621,2.062
		c-0.914,0.623-2.614,0.202-3.938,0.099c-8.416-0.658-16.887-0.976-25.217-2.222c-4.047-0.605-10.27,0.8-9.917-5.771
		c-18.791,0-37.06-0.006-55.329,0.003C3.414,59.942,3.414,59.954,0,68.822c13.539,5.933,27.096,11.744,40.486,17.914
		c1.546,0.712,2.664,3.296,3.129,5.219c1.145,4.729,1.162,9.805,2.787,14.326c2.429,6.762,5.818,13.182,8.863,19.717
		c0.971,2.082,2.145,4.069,3.761,7.104c1.688-2.12,2.591-3.322,3.562-4.466c9.253-10.885,20.962-17.599,35.014-19.912
		c12.847-2.115,25.733-4.078,38.667-5.535c6.33-0.714,12.807-0.124,19.107-0.124c-1.391,11.489-2.7,22.314-4.167,34.441
		c4.384-2.73,7.714-4.533,10.744-6.747c7.425-5.426,15.474-10.323,18.683-19.759c0-6,0-12,0-18
		C179.141,85.304,178.324,77.396,176.013,69.952z"/>
</g>
<g id="Layer_1">
</g>
</svg>
