<?xml version="1.0" encoding="iso-8859-1"?>
<!-- Generator: Adobe Illustrator 19.2.1, SVG Export Plug-In . SVG Version: 6.00 Build 0)  -->
<svg version="1.1" xmlns="http://www.w3.org/2000/svg" xmlns:xlink="http://www.w3.org/1999/xlink" x="0px" y="0px"
	 viewBox="0 0 335.744 304.268" style="enable-background:new 0 0 335.744 304.268;" xml:space="preserve">
<g id="gaspea">
	<path style="opacity:0.4;fill-rule:evenodd;clip-rule:evenodd;" d="M332.708,231.365c-4.596-5.434-9.127-10.994-14.294-15.858
		c-17.682-16.639-38.011-28.838-61.188-36.476c-14.879-4.903-29.353-10.386-39.96-23.426c-10.169-12.503-8.687-37.97,4.788-48.06
		c16.295-12.202,25.184-29.904,35.439-46.623c0.201-0.328-0.027-0.92-0.072-1.661c-3.727,0-7.381,0.207-11.002-0.039
		c-10.814-0.736-12.23-2.664-9.92-12.874c0.363-1.605,0.475-3.278,0.965-4.838c2.053-6.531,4.645-12.931,6.151-19.579
		c0.868-3.829,2.362-6.375,5.881-7.759c4.042-1.589,8.117-3.095,12.298-4.683c-8.73-9.837-19.932-10.542-31.502-8.659
		c-7.307,1.189-14.145,3.882-15.881,12.593c-0.146,0.73-0.821,1.735-1.458,1.928c-5.414,1.637-4.789,6.184-5.252,10.315
		c-0.876,7.811-1.943,15.603-2.839,23.412c-0.409,3.56-1.94,7.877-0.502,10.505c1.362,2.489,0.52,3.611-0.386,4.806
		c-11.496,15.152-21.901,31.162-36.524,43.784c-14.923,12.882-25.941,29.133-36.997,45.243c-3.333,4.855-5.426,10.584-8.901,15.315
		c-4.885,6.65-10.455,12.805-15.881,19.042c-2.528,2.906-4.949,6.36-8.201,8.107c-18.113,9.725-37.781,14.351-58.104,16.355
		c-14.198,1.401-24.82,9.388-32.938,19.903c-8.792,11.389-7.235,25.088-3.179,37.968c2.504,7.949,7.46,14.852,16.428,16.945
		c8.657,2.021,17.376,3.854,26.145,5.302c11.081,1.829,22.238,3.198,33.365,4.741c10.486,1.455,20.938,3.604,31.473,4.171
		c25.72,1.382,51.48,2.004,77.222,2.993c3.003,0.115,4.306-0.911,3.954-4.032c-0.889-7.89-1.491-15.814-2.514-23.685
		c-2.467-18.987-8.96-36.748-16.797-54.085c-0.39-0.862-0.37-1.91-0.636-3.408c1.122,0.563,1.716,0.663,1.945,1.006
		c7.323,10.977,16.107,21.292,21.524,33.145c6.65,14.55,10.423,30.408,15.618,45.64c0.583,1.709,2.28,4.273,3.528,4.312
		c6.444,0.207,12.934-0.023,19.365-0.582c9.727-0.846,19.413-2.872,29.126-2.93c8.911-0.053,17.047-1.252,24.431-6.366
		c1.079-0.747,2.405-1.133,3.499-1.863c10.871-7.261,22.018-14.143,28.834-26.001c5.08-8.838,10.64-17.4,15.985-26.085
		c0-0.667,0-1.333,0-2C334.753,235.321,334.111,233.022,332.708,231.365z"/>
</g>
<g id="Layer_1">
</g>
</svg>
