<?xml version="1.0" encoding="iso-8859-1"?>
<!-- Generator: Adobe Illustrator 19.2.1, SVG Export Plug-In . SVG Version: 6.00 Build 0)  -->
<svg version="1.1" xmlns="http://www.w3.org/2000/svg" xmlns:xlink="http://www.w3.org/1999/xlink" x="0px" y="0px"
	 viewBox="0 0 237.229 201.028" style="enable-background:new 0 0 237.229 201.028;" xml:space="preserve">
<g id="palmilha">
	<path style="opacity:0.4;fill-rule:evenodd;clip-rule:evenodd;" d="M163.695,131.988c-18.959-25.42-43.654-42.273-72.848-54.158
		c4.99-5.527,9.418-11.086,14.517-15.94c10.358-9.86,21.071-19.35,31.655-28.974c6.273-5.703,12.285-11.745,18.938-16.969
		c9.555-7.503,21.24-9.521,32.889-11.507c16.016-2.732,32.072-4.716,48.383-4.409c-1.502,11.3-2.75,22.364-4.614,33.324
		c-0.38,2.232-2.942,4.197-4.731,6.065c-9.658,10.084-19.664,19.853-28.977,30.244c-4.375,4.88-7.908,10.67-11.049,16.468
		c-7.011,12.948-13.514,26.171-20.277,39.254C166.369,127.73,164.906,129.943,163.695,131.988z"/>
	<path style="opacity:0.4;fill-rule:evenodd;clip-rule:evenodd;" d="M0,117.353c22.227,23.635,32.614,52.689,39.725,83.676
		c-6.54,0-12.628,0-19.16,0C18.893,171.752,12.188,143.888,0,117.353z"/>
</g>
<g id="Layer_1">
</g>
</svg>
