<?xml version="1.0" encoding="iso-8859-1"?>
<!-- Generator: Adobe Illustrator 19.2.1, SVG Export Plug-In . SVG Version: 6.00 Build 0)  -->
<svg version="1.1" xmlns="http://www.w3.org/2000/svg" xmlns:xlink="http://www.w3.org/1999/xlink" x="0px" y="0px"
	 viewBox="0 0 139.838 51.93" style="enable-background:new 0 0 139.838 51.93;" xml:space="preserve">
<g id="tira">
	<path style="opacity:0.4;fill-rule:evenodd;clip-rule:evenodd;" d="M70.838,0c3.76,0.314,7.557,0.407,11.258,1.054
		c1.414,0.247,3.686,1.706,3.738,2.707c0.804,15.437,1.307,30.888,1.865,46.337c0.004,0.121-0.191,0.251-0.59,0.738
		c-1.299,0.07-2.914,0.21-4.533,0.235c-21.631,0.342-43.263,0.854-64.895,0.858c-5,0.001-10.066-1.51-14.955-2.856
		c-1.242-0.342-3.007-3.045-2.69-4.116c2.916-9.825,7.389-19.337,9.078-29.333c1.342-7.942,6.406-9.6,12-10.695
		c9.521-1.866,19.233-2.812,28.889-3.933C54.921,0.426,59.892,0.317,64.838,0C66.838,0,68.838,0,70.838,0z"/>
	<path style="opacity:0.4;fill-rule:evenodd;clip-rule:evenodd;" d="M139.838,48c-2.035,0.997-4.125,2.943-6.096,2.829
		c-9.171-0.534-18.293-2.012-27.463-2.392c-5.125-0.212-6.65-2.365-6.539-6.937c0.115-4.649,0.025-9.304,0.025-12.526
		c2.629-1.508,5.799-2.312,6.035-3.639c0.97-5.433-5.224-2.067-6.92-5.604c0-5.197,0-11.154,0-17.679
		c11.713-1.353,23.309-2.948,34.618,1.589c1.519,0.609,3.195,2.876,3.346,4.51c0.925,10.052,1.409,20.143,2.108,30.218
		c0.085,1.225,0.58,2.421,0.885,3.631C139.838,44,139.838,46,139.838,48z"/>
</g>
<g id="Layer_1">
</g>
</svg>
